solid OpenSCAD_Model
  facet normal 0.684562 0.728955 -0
    outer loop
      vertex 1.45794 1.36909 1.5
      vertex 1.27485 1.54103 4
      vertex 1.45794 1.36909 4
    endloop
  endfacet
  facet normal 0.684562 0.728955 0
    outer loop
      vertex 1.27485 1.54103 4
      vertex 1.45794 1.36909 1.5
      vertex 1.27485 1.54103 1.5
    endloop
  endfacet
  facet normal -0.481764 -0.876301 0
    outer loop
      vertex -1.07165 -1.68865 1.5
      vertex -0.851558 -1.80965 4
      vertex -1.07165 -1.68865 4
    endloop
  endfacet
  facet normal -0.481764 -0.876301 -0
    outer loop
      vertex -0.851558 -1.80965 4
      vertex -1.07165 -1.68865 1.5
      vertex -0.851558 -1.80965 1.5
    endloop
  endfacet
  facet normal -0.904826 -0.425781 0
    outer loop
      vertex -1.75261 -0.963507 1.5
      vertex -1.85955 -0.736249 4
      vertex -1.85955 -0.736249 1.5
    endloop
  endfacet
  facet normal -0.904826 -0.425781 0
    outer loop
      vertex -1.85955 -0.736249 4
      vertex -1.75261 -0.963507 1.5
      vertex -1.75261 -0.963507 4
    endloop
  endfacet
  facet normal -0.951049 -0.30904 0
    outer loop
      vertex -1.85955 -0.736249 1.5
      vertex -1.93717 -0.497379 4
      vertex -1.93717 -0.497379 1.5
    endloop
  endfacet
  facet normal -0.951049 -0.30904 0
    outer loop
      vertex -1.93717 -0.497379 4
      vertex -1.85955 -0.736249 1.5
      vertex -1.85955 -0.736249 4
    endloop
  endfacet
  facet normal 0.844327 0.535829 0
    outer loop
      vertex 1.75261 0.963507 4
      vertex 1.61803 1.17557 1.5
      vertex 1.61803 1.17557 4
    endloop
  endfacet
  facet normal 0.844327 0.535829 0
    outer loop
      vertex 1.61803 1.17557 1.5
      vertex 1.75261 0.963507 4
      vertex 1.75261 0.963507 1.5
    endloop
  endfacet
  facet normal -0.125337 0.992114 0
    outer loop
      vertex -0.125581 1.99605 1.5
      vertex -0.374763 1.96457 4
      vertex -0.125581 1.99605 4
    endloop
  endfacet
  facet normal -0.125337 0.992114 0
    outer loop
      vertex -0.374763 1.96457 4
      vertex -0.125581 1.99605 1.5
      vertex -0.374763 1.96457 1.5
    endloop
  endfacet
  facet normal 0.998027 0.0627883 0
    outer loop
      vertex 2 0 4
      vertex 1.98423 0.250666 1.5
      vertex 1.98423 0.250666 4
    endloop
  endfacet
  facet normal 0.998027 0.0627883 0
    outer loop
      vertex 1.98423 0.250666 1.5
      vertex 2 0 4
      vertex 2 0 1.5
    endloop
  endfacet
  facet normal 0.125337 0.992114 -0
    outer loop
      vertex 0.374763 1.96457 1.5
      vertex 0.125581 1.99605 4
      vertex 0.374763 1.96457 4
    endloop
  endfacet
  facet normal 0.125337 0.992114 0
    outer loop
      vertex 0.125581 1.99605 4
      vertex 0.374763 1.96457 1.5
      vertex 0.125581 1.99605 1.5
    endloop
  endfacet
  facet normal -0.58775 -0.809042 0
    outer loop
      vertex -1.27485 -1.54103 1.5
      vertex -1.07165 -1.68865 4
      vertex -1.27485 -1.54103 4
    endloop
  endfacet
  facet normal -0.58775 -0.809042 -0
    outer loop
      vertex -1.07165 -1.68865 4
      vertex -1.27485 -1.54103 1.5
      vertex -1.07165 -1.68865 1.5
    endloop
  endfacet
  facet normal -0.248686 0.968584 0
    outer loop
      vertex -0.374763 1.96457 1.5
      vertex -0.618033 1.90211 4
      vertex -0.374763 1.96457 4
    endloop
  endfacet
  facet normal -0.248686 0.968584 0
    outer loop
      vertex -0.618033 1.90211 4
      vertex -0.374763 1.96457 1.5
      vertex -0.618033 1.90211 1.5
    endloop
  endfacet
  facet normal 0.982289 0.18737 0
    outer loop
      vertex 1.98423 0.250666 4
      vertex 1.93717 0.497379 1.5
      vertex 1.93717 0.497379 4
    endloop
  endfacet
  facet normal 0.982289 0.18737 0
    outer loop
      vertex 1.93717 0.497379 1.5
      vertex 1.98423 0.250666 4
      vertex 1.98423 0.250666 1.5
    endloop
  endfacet
  facet normal 0.368128 0.929775 -0
    outer loop
      vertex 0.851558 1.80965 1.5
      vertex 0.618033 1.90211 4
      vertex 0.851558 1.80965 4
    endloop
  endfacet
  facet normal 0.368128 0.929775 0
    outer loop
      vertex 0.618033 1.90211 4
      vertex 0.851558 1.80965 1.5
      vertex 0.618033 1.90211 1.5
    endloop
  endfacet
  facet normal 0.58775 0.809042 -0
    outer loop
      vertex 1.27485 1.54103 1.5
      vertex 1.07165 1.68865 4
      vertex 1.27485 1.54103 4
    endloop
  endfacet
  facet normal 0.58775 0.809042 0
    outer loop
      vertex 1.07165 1.68865 4
      vertex 1.27485 1.54103 1.5
      vertex 1.07165 1.68865 1.5
    endloop
  endfacet
  facet normal 0.481764 -0.876301 0
    outer loop
      vertex 0.851558 -1.80965 1.5
      vertex 1.07165 -1.68865 4
      vertex 0.851558 -1.80965 4
    endloop
  endfacet
  facet normal 0.481764 -0.876301 0
    outer loop
      vertex 1.07165 -1.68865 4
      vertex 0.851558 -1.80965 1.5
      vertex 1.07165 -1.68865 1.5
    endloop
  endfacet
  facet normal -0.684562 -0.728955 0
    outer loop
      vertex -1.45794 -1.36909 1.5
      vertex -1.27485 -1.54103 4
      vertex -1.45794 -1.36909 4
    endloop
  endfacet
  facet normal -0.684562 -0.728955 -0
    outer loop
      vertex -1.27485 -1.54103 4
      vertex -1.45794 -1.36909 1.5
      vertex -1.27485 -1.54103 1.5
    endloop
  endfacet
  facet normal 0.998027 -0.0627883 0
    outer loop
      vertex 1.98423 -0.250666 4
      vertex 2 0 1.5
      vertex 2 0 4
    endloop
  endfacet
  facet normal 0.998027 -0.0627883 0
    outer loop
      vertex 2 0 1.5
      vertex 1.98423 -0.250666 4
      vertex 1.98423 -0.250666 1.5
    endloop
  endfacet
  facet normal 0.844327 -0.535829 0
    outer loop
      vertex 1.61803 -1.17557 4
      vertex 1.75261 -0.963507 1.5
      vertex 1.75261 -0.963507 4
    endloop
  endfacet
  facet normal 0.844327 -0.535829 0
    outer loop
      vertex 1.75261 -0.963507 1.5
      vertex 1.61803 -1.17557 4
      vertex 1.61803 -1.17557 1.5
    endloop
  endfacet
  facet normal -0.998027 0.0627883 0
    outer loop
      vertex -2 0 1.5
      vertex -1.98423 0.250666 4
      vertex -1.98423 0.250666 1.5
    endloop
  endfacet
  facet normal -0.998027 0.0627883 0
    outer loop
      vertex -1.98423 0.250666 4
      vertex -2 0 1.5
      vertex -2 0 4
    endloop
  endfacet
  facet normal -0.684562 0.728955 0
    outer loop
      vertex -1.27485 1.54103 1.5
      vertex -1.45794 1.36909 4
      vertex -1.27485 1.54103 4
    endloop
  endfacet
  facet normal -0.684562 0.728955 0
    outer loop
      vertex -1.45794 1.36909 4
      vertex -1.27485 1.54103 1.5
      vertex -1.45794 1.36909 1.5
    endloop
  endfacet
  facet normal -0.844327 0.535829 0
    outer loop
      vertex -1.75261 0.963507 1.5
      vertex -1.61803 1.17557 4
      vertex -1.61803 1.17557 1.5
    endloop
  endfacet
  facet normal -0.844327 0.535829 0
    outer loop
      vertex -1.61803 1.17557 4
      vertex -1.75261 0.963507 1.5
      vertex -1.75261 0.963507 4
    endloop
  endfacet
  facet normal 0.481764 0.876301 -0
    outer loop
      vertex 1.07165 1.68865 1.5
      vertex 0.851558 1.80965 4
      vertex 1.07165 1.68865 4
    endloop
  endfacet
  facet normal 0.481764 0.876301 0
    outer loop
      vertex 0.851558 1.80965 4
      vertex 1.07165 1.68865 1.5
      vertex 0.851558 1.80965 1.5
    endloop
  endfacet
  facet normal -0.982289 0.18737 0
    outer loop
      vertex -1.98423 0.250666 1.5
      vertex -1.93717 0.497379 4
      vertex -1.93717 0.497379 1.5
    endloop
  endfacet
  facet normal -0.982289 0.18737 0
    outer loop
      vertex -1.93717 0.497379 4
      vertex -1.98423 0.250666 1.5
      vertex -1.98423 0.250666 4
    endloop
  endfacet
  facet normal 0.125337 -0.992114 0
    outer loop
      vertex 0.125581 -1.99605 1.5
      vertex 0.374763 -1.96457 4
      vertex 0.125581 -1.99605 4
    endloop
  endfacet
  facet normal 0.125337 -0.992114 0
    outer loop
      vertex 0.374763 -1.96457 4
      vertex 0.125581 -1.99605 1.5
      vertex 0.374763 -1.96457 1.5
    endloop
  endfacet
  facet normal -0.951049 0.30904 0
    outer loop
      vertex -1.93717 0.497379 1.5
      vertex -1.85955 0.736249 4
      vertex -1.85955 0.736249 1.5
    endloop
  endfacet
  facet normal -0.951049 0.30904 0
    outer loop
      vertex -1.85955 0.736249 4
      vertex -1.93717 0.497379 1.5
      vertex -1.93717 0.497379 4
    endloop
  endfacet
  facet normal 0.77052 0.637415 0
    outer loop
      vertex 1.61803 1.17557 4
      vertex 1.45794 1.36909 1.5
      vertex 1.45794 1.36909 4
    endloop
  endfacet
  facet normal 0.77052 0.637415 0
    outer loop
      vertex 1.45794 1.36909 1.5
      vertex 1.61803 1.17557 4
      vertex 1.61803 1.17557 1.5
    endloop
  endfacet
  facet normal -0.982289 -0.18737 0
    outer loop
      vertex -1.93717 -0.497379 1.5
      vertex -1.98423 -0.250666 4
      vertex -1.98423 -0.250666 1.5
    endloop
  endfacet
  facet normal -0.982289 -0.18737 0
    outer loop
      vertex -1.98423 -0.250666 4
      vertex -1.93717 -0.497379 1.5
      vertex -1.93717 -0.497379 4
    endloop
  endfacet
  facet normal 0.904826 -0.425781 0
    outer loop
      vertex 1.75261 -0.963507 4
      vertex 1.85955 -0.736249 1.5
      vertex 1.85955 -0.736249 4
    endloop
  endfacet
  facet normal 0.904826 -0.425781 0
    outer loop
      vertex 1.85955 -0.736249 1.5
      vertex 1.75261 -0.963507 4
      vertex 1.75261 -0.963507 1.5
    endloop
  endfacet
  facet normal 0.248686 0.968584 -0
    outer loop
      vertex 0.618033 1.90211 1.5
      vertex 0.374763 1.96457 4
      vertex 0.618033 1.90211 4
    endloop
  endfacet
  facet normal 0.248686 0.968584 0
    outer loop
      vertex 0.374763 1.96457 4
      vertex 0.618033 1.90211 1.5
      vertex 0.374763 1.96457 1.5
    endloop
  endfacet
  facet normal 0.684562 -0.728955 0
    outer loop
      vertex 1.27485 -1.54103 1.5
      vertex 1.45794 -1.36909 4
      vertex 1.27485 -1.54103 4
    endloop
  endfacet
  facet normal 0.684562 -0.728955 0
    outer loop
      vertex 1.45794 -1.36909 4
      vertex 1.27485 -1.54103 1.5
      vertex 1.45794 -1.36909 1.5
    endloop
  endfacet
  facet normal -0.481764 0.876301 0
    outer loop
      vertex -0.851558 1.80965 1.5
      vertex -1.07165 1.68865 4
      vertex -0.851558 1.80965 4
    endloop
  endfacet
  facet normal -0.481764 0.876301 0
    outer loop
      vertex -1.07165 1.68865 4
      vertex -0.851558 1.80965 1.5
      vertex -1.07165 1.68865 1.5
    endloop
  endfacet
  facet normal 0.368128 -0.929775 0
    outer loop
      vertex 0.618033 -1.90211 1.5
      vertex 0.851558 -1.80965 4
      vertex 0.618033 -1.90211 4
    endloop
  endfacet
  facet normal 0.368128 -0.929775 0
    outer loop
      vertex 0.851558 -1.80965 4
      vertex 0.618033 -1.90211 1.5
      vertex 0.851558 -1.80965 1.5
    endloop
  endfacet
  facet normal 0.248686 -0.968584 0
    outer loop
      vertex 0.374763 -1.96457 1.5
      vertex 0.618033 -1.90211 4
      vertex 0.374763 -1.96457 4
    endloop
  endfacet
  facet normal 0.248686 -0.968584 0
    outer loop
      vertex 0.618033 -1.90211 4
      vertex 0.374763 -1.96457 1.5
      vertex 0.618033 -1.90211 1.5
    endloop
  endfacet
  facet normal -0.368128 0.929775 0
    outer loop
      vertex -0.618033 1.90211 1.5
      vertex -0.851558 1.80965 4
      vertex -0.618033 1.90211 4
    endloop
  endfacet
  facet normal -0.368128 0.929775 0
    outer loop
      vertex -0.851558 1.80965 4
      vertex -0.618033 1.90211 1.5
      vertex -0.851558 1.80965 1.5
    endloop
  endfacet
  facet normal 0 -1 0
    outer loop
      vertex -0.125581 -1.99605 1.5
      vertex 0.125581 -1.99605 4
      vertex -0.125581 -1.99605 4
    endloop
  endfacet
  facet normal 0 -1 -0
    outer loop
      vertex 0.125581 -1.99605 4
      vertex -0.125581 -1.99605 1.5
      vertex 0.125581 -1.99605 1.5
    endloop
  endfacet
  facet normal 0.982289 -0.18737 0
    outer loop
      vertex 1.93717 -0.497379 4
      vertex 1.98423 -0.250666 1.5
      vertex 1.98423 -0.250666 4
    endloop
  endfacet
  facet normal 0.982289 -0.18737 0
    outer loop
      vertex 1.98423 -0.250666 1.5
      vertex 1.93717 -0.497379 4
      vertex 1.93717 -0.497379 1.5
    endloop
  endfacet
  facet normal -0.125337 -0.992114 0
    outer loop
      vertex -0.374763 -1.96457 1.5
      vertex -0.125581 -1.99605 4
      vertex -0.374763 -1.96457 4
    endloop
  endfacet
  facet normal -0.125337 -0.992114 -0
    outer loop
      vertex -0.125581 -1.99605 4
      vertex -0.374763 -1.96457 1.5
      vertex -0.125581 -1.99605 1.5
    endloop
  endfacet
  facet normal 0 0 1
    outer loop
      vertex 1.98423 0.250666 4
      vertex 1.98423 -0.250666 4
      vertex 2 0 4
    endloop
  endfacet
  facet normal 0 0 1
    outer loop
      vertex 1.93717 0.497379 4
      vertex 1.98423 -0.250666 4
      vertex 1.98423 0.250666 4
    endloop
  endfacet
  facet normal 0 0 1
    outer loop
      vertex 1.93717 0.497379 4
      vertex 1.93717 -0.497379 4
      vertex 1.98423 -0.250666 4
    endloop
  endfacet
  facet normal 0 0 1
    outer loop
      vertex 1.85955 0.736249 4
      vertex 1.93717 -0.497379 4
      vertex 1.93717 0.497379 4
    endloop
  endfacet
  facet normal 0 0 1
    outer loop
      vertex 1.85955 0.736249 4
      vertex 1.85955 -0.736249 4
      vertex 1.93717 -0.497379 4
    endloop
  endfacet
  facet normal 0 0 1
    outer loop
      vertex 1.75261 0.963507 4
      vertex 1.85955 -0.736249 4
      vertex 1.85955 0.736249 4
    endloop
  endfacet
  facet normal 0 0 1
    outer loop
      vertex 1.75261 0.963507 4
      vertex 1.75261 -0.963507 4
      vertex 1.85955 -0.736249 4
    endloop
  endfacet
  facet normal 0 0 1
    outer loop
      vertex 1.61803 1.17557 4
      vertex 1.75261 -0.963507 4
      vertex 1.75261 0.963507 4
    endloop
  endfacet
  facet normal 0 0 1
    outer loop
      vertex 1.61803 1.17557 4
      vertex 1.61803 -1.17557 4
      vertex 1.75261 -0.963507 4
    endloop
  endfacet
  facet normal 0 0 1
    outer loop
      vertex 1.45794 1.36909 4
      vertex 1.61803 -1.17557 4
      vertex 1.61803 1.17557 4
    endloop
  endfacet
  facet normal 0 0 1
    outer loop
      vertex 1.45794 1.36909 4
      vertex 1.45794 -1.36909 4
      vertex 1.61803 -1.17557 4
    endloop
  endfacet
  facet normal 0 0 1
    outer loop
      vertex 1.27485 1.54103 4
      vertex 1.45794 -1.36909 4
      vertex 1.45794 1.36909 4
    endloop
  endfacet
  facet normal 0 0 1
    outer loop
      vertex 1.27485 1.54103 4
      vertex 1.27485 -1.54103 4
      vertex 1.45794 -1.36909 4
    endloop
  endfacet
  facet normal 0 0 1
    outer loop
      vertex 1.07165 1.68865 4
      vertex 1.27485 -1.54103 4
      vertex 1.27485 1.54103 4
    endloop
  endfacet
  facet normal 0 0 1
    outer loop
      vertex 1.07165 1.68865 4
      vertex 1.07165 -1.68865 4
      vertex 1.27485 -1.54103 4
    endloop
  endfacet
  facet normal 0 0 1
    outer loop
      vertex 0.851558 1.80965 4
      vertex 1.07165 -1.68865 4
      vertex 1.07165 1.68865 4
    endloop
  endfacet
  facet normal 0 0 1
    outer loop
      vertex 0.851558 1.80965 4
      vertex 0.851558 -1.80965 4
      vertex 1.07165 -1.68865 4
    endloop
  endfacet
  facet normal 0 0 1
    outer loop
      vertex 0.618033 1.90211 4
      vertex 0.851558 -1.80965 4
      vertex 0.851558 1.80965 4
    endloop
  endfacet
  facet normal 0 0 1
    outer loop
      vertex 0.618033 1.90211 4
      vertex 0.618033 -1.90211 4
      vertex 0.851558 -1.80965 4
    endloop
  endfacet
  facet normal 0 0 1
    outer loop
      vertex 0.374763 1.96457 4
      vertex 0.618033 -1.90211 4
      vertex 0.618033 1.90211 4
    endloop
  endfacet
  facet normal 0 0 1
    outer loop
      vertex 0.374763 1.96457 4
      vertex 0.374763 -1.96457 4
      vertex 0.618033 -1.90211 4
    endloop
  endfacet
  facet normal 0 0 1
    outer loop
      vertex 0.125581 1.99605 4
      vertex 0.374763 -1.96457 4
      vertex 0.374763 1.96457 4
    endloop
  endfacet
  facet normal 0 0 1
    outer loop
      vertex 0.125581 1.99605 4
      vertex 0.125581 -1.99605 4
      vertex 0.374763 -1.96457 4
    endloop
  endfacet
  facet normal -0 0 1
    outer loop
      vertex -0.125581 1.99605 4
      vertex 0.125581 -1.99605 4
      vertex 0.125581 1.99605 4
    endloop
  endfacet
  facet normal 0 0 1
    outer loop
      vertex -0.125581 1.99605 4
      vertex -0.125581 -1.99605 4
      vertex 0.125581 -1.99605 4
    endloop
  endfacet
  facet normal -0 0 1
    outer loop
      vertex -0.374763 1.96457 4
      vertex -0.125581 -1.99605 4
      vertex -0.125581 1.99605 4
    endloop
  endfacet
  facet normal 0 0 1
    outer loop
      vertex -0.374763 1.96457 4
      vertex -0.374763 -1.96457 4
      vertex -0.125581 -1.99605 4
    endloop
  endfacet
  facet normal -0 0 1
    outer loop
      vertex -0.618033 1.90211 4
      vertex -0.374763 -1.96457 4
      vertex -0.374763 1.96457 4
    endloop
  endfacet
  facet normal 0 0 1
    outer loop
      vertex -0.618033 1.90211 4
      vertex -0.618033 -1.90211 4
      vertex -0.374763 -1.96457 4
    endloop
  endfacet
  facet normal -0 0 1
    outer loop
      vertex -0.851558 1.80965 4
      vertex -0.618033 -1.90211 4
      vertex -0.618033 1.90211 4
    endloop
  endfacet
  facet normal 0 0 1
    outer loop
      vertex -0.851558 1.80965 4
      vertex -0.851558 -1.80965 4
      vertex -0.618033 -1.90211 4
    endloop
  endfacet
  facet normal -0 0 1
    outer loop
      vertex -1.07165 1.68865 4
      vertex -0.851558 -1.80965 4
      vertex -0.851558 1.80965 4
    endloop
  endfacet
  facet normal 0 0 1
    outer loop
      vertex -1.07165 1.68865 4
      vertex -1.07165 -1.68865 4
      vertex -0.851558 -1.80965 4
    endloop
  endfacet
  facet normal -0 0 1
    outer loop
      vertex -1.27485 1.54103 4
      vertex -1.07165 -1.68865 4
      vertex -1.07165 1.68865 4
    endloop
  endfacet
  facet normal 0 0 1
    outer loop
      vertex -1.27485 1.54103 4
      vertex -1.27485 -1.54103 4
      vertex -1.07165 -1.68865 4
    endloop
  endfacet
  facet normal -0 0 1
    outer loop
      vertex -1.45794 1.36909 4
      vertex -1.27485 -1.54103 4
      vertex -1.27485 1.54103 4
    endloop
  endfacet
  facet normal 0 0 1
    outer loop
      vertex -1.45794 1.36909 4
      vertex -1.45794 -1.36909 4
      vertex -1.27485 -1.54103 4
    endloop
  endfacet
  facet normal -0 0 1
    outer loop
      vertex -1.61803 1.17557 4
      vertex -1.45794 -1.36909 4
      vertex -1.45794 1.36909 4
    endloop
  endfacet
  facet normal 0 0 1
    outer loop
      vertex -1.61803 1.17557 4
      vertex -1.61803 -1.17557 4
      vertex -1.45794 -1.36909 4
    endloop
  endfacet
  facet normal -0 0 1
    outer loop
      vertex -1.75261 0.963507 4
      vertex -1.61803 -1.17557 4
      vertex -1.61803 1.17557 4
    endloop
  endfacet
  facet normal 0 0 1
    outer loop
      vertex -1.75261 0.963507 4
      vertex -1.75261 -0.963507 4
      vertex -1.61803 -1.17557 4
    endloop
  endfacet
  facet normal -0 0 1
    outer loop
      vertex -1.85955 0.736249 4
      vertex -1.75261 -0.963507 4
      vertex -1.75261 0.963507 4
    endloop
  endfacet
  facet normal 0 0 1
    outer loop
      vertex -1.85955 0.736249 4
      vertex -1.85955 -0.736249 4
      vertex -1.75261 -0.963507 4
    endloop
  endfacet
  facet normal -0 0 1
    outer loop
      vertex -1.93717 0.497379 4
      vertex -1.85955 -0.736249 4
      vertex -1.85955 0.736249 4
    endloop
  endfacet
  facet normal 0 0 1
    outer loop
      vertex -1.93717 0.497379 4
      vertex -1.93717 -0.497379 4
      vertex -1.85955 -0.736249 4
    endloop
  endfacet
  facet normal -0 0 1
    outer loop
      vertex -1.98423 0.250666 4
      vertex -1.93717 -0.497379 4
      vertex -1.93717 0.497379 4
    endloop
  endfacet
  facet normal 0 0 1
    outer loop
      vertex -1.98423 0.250666 4
      vertex -1.98423 -0.250666 4
      vertex -1.93717 -0.497379 4
    endloop
  endfacet
  facet normal 0 -0 1
    outer loop
      vertex -1.98423 -0.250666 4
      vertex -1.98423 0.250666 4
      vertex -2 0 4
    endloop
  endfacet
  facet normal 0 1 -0
    outer loop
      vertex 0.125581 1.99605 1.5
      vertex -0.125581 1.99605 4
      vertex 0.125581 1.99605 4
    endloop
  endfacet
  facet normal 0 1 0
    outer loop
      vertex -0.125581 1.99605 4
      vertex 0.125581 1.99605 1.5
      vertex -0.125581 1.99605 1.5
    endloop
  endfacet
  facet normal 0.951049 0.30904 0
    outer loop
      vertex 1.93717 0.497379 4
      vertex 1.85955 0.736249 1.5
      vertex 1.85955 0.736249 4
    endloop
  endfacet
  facet normal 0.951049 0.30904 0
    outer loop
      vertex 1.85955 0.736249 1.5
      vertex 1.93717 0.497379 4
      vertex 1.93717 0.497379 1.5
    endloop
  endfacet
  facet normal -0.77052 0.637415 0
    outer loop
      vertex -1.61803 1.17557 1.5
      vertex -1.45794 1.36909 4
      vertex -1.45794 1.36909 1.5
    endloop
  endfacet
  facet normal -0.77052 0.637415 0
    outer loop
      vertex -1.45794 1.36909 4
      vertex -1.61803 1.17557 1.5
      vertex -1.61803 1.17557 4
    endloop
  endfacet
  facet normal 0.904826 0.425781 0
    outer loop
      vertex 1.85955 0.736249 4
      vertex 1.75261 0.963507 1.5
      vertex 1.75261 0.963507 4
    endloop
  endfacet
  facet normal 0.904826 0.425781 0
    outer loop
      vertex 1.75261 0.963507 1.5
      vertex 1.85955 0.736249 4
      vertex 1.85955 0.736249 1.5
    endloop
  endfacet
  facet normal -0.904826 0.425781 0
    outer loop
      vertex -1.85955 0.736249 1.5
      vertex -1.75261 0.963507 4
      vertex -1.75261 0.963507 1.5
    endloop
  endfacet
  facet normal -0.904826 0.425781 0
    outer loop
      vertex -1.75261 0.963507 4
      vertex -1.85955 0.736249 1.5
      vertex -1.85955 0.736249 4
    endloop
  endfacet
  facet normal 0.77052 -0.637415 0
    outer loop
      vertex 1.45794 -1.36909 4
      vertex 1.61803 -1.17557 1.5
      vertex 1.61803 -1.17557 4
    endloop
  endfacet
  facet normal 0.77052 -0.637415 0
    outer loop
      vertex 1.61803 -1.17557 1.5
      vertex 1.45794 -1.36909 4
      vertex 1.45794 -1.36909 1.5
    endloop
  endfacet
  facet normal -0.58775 0.809042 0
    outer loop
      vertex -1.07165 1.68865 1.5
      vertex -1.27485 1.54103 4
      vertex -1.07165 1.68865 4
    endloop
  endfacet
  facet normal -0.58775 0.809042 0
    outer loop
      vertex -1.27485 1.54103 4
      vertex -1.07165 1.68865 1.5
      vertex -1.27485 1.54103 1.5
    endloop
  endfacet
  facet normal -0.77052 -0.637415 0
    outer loop
      vertex -1.45794 -1.36909 1.5
      vertex -1.61803 -1.17557 4
      vertex -1.61803 -1.17557 1.5
    endloop
  endfacet
  facet normal -0.77052 -0.637415 0
    outer loop
      vertex -1.61803 -1.17557 4
      vertex -1.45794 -1.36909 1.5
      vertex -1.45794 -1.36909 4
    endloop
  endfacet
  facet normal -0.844327 -0.535829 0
    outer loop
      vertex -1.61803 -1.17557 1.5
      vertex -1.75261 -0.963507 4
      vertex -1.75261 -0.963507 1.5
    endloop
  endfacet
  facet normal -0.844327 -0.535829 0
    outer loop
      vertex -1.75261 -0.963507 4
      vertex -1.61803 -1.17557 1.5
      vertex -1.61803 -1.17557 4
    endloop
  endfacet
  facet normal -0.998027 -0.0627883 0
    outer loop
      vertex -1.98423 -0.250666 1.5
      vertex -2 0 4
      vertex -2 0 1.5
    endloop
  endfacet
  facet normal -0.998027 -0.0627883 0
    outer loop
      vertex -2 0 4
      vertex -1.98423 -0.250666 1.5
      vertex -1.98423 -0.250666 4
    endloop
  endfacet
  facet normal -0.368128 -0.929775 0
    outer loop
      vertex -0.851558 -1.80965 1.5
      vertex -0.618033 -1.90211 4
      vertex -0.851558 -1.80965 4
    endloop
  endfacet
  facet normal -0.368128 -0.929775 -0
    outer loop
      vertex -0.618033 -1.90211 4
      vertex -0.851558 -1.80965 1.5
      vertex -0.618033 -1.90211 1.5
    endloop
  endfacet
  facet normal 0.951049 -0.30904 0
    outer loop
      vertex 1.85955 -0.736249 4
      vertex 1.93717 -0.497379 1.5
      vertex 1.93717 -0.497379 4
    endloop
  endfacet
  facet normal 0.951049 -0.30904 0
    outer loop
      vertex 1.93717 -0.497379 1.5
      vertex 1.85955 -0.736249 4
      vertex 1.85955 -0.736249 1.5
    endloop
  endfacet
  facet normal 0.58775 -0.809042 0
    outer loop
      vertex 1.07165 -1.68865 1.5
      vertex 1.27485 -1.54103 4
      vertex 1.07165 -1.68865 4
    endloop
  endfacet
  facet normal 0.58775 -0.809042 0
    outer loop
      vertex 1.27485 -1.54103 4
      vertex 1.07165 -1.68865 1.5
      vertex 1.27485 -1.54103 1.5
    endloop
  endfacet
  facet normal -0.248686 -0.968584 0
    outer loop
      vertex -0.618033 -1.90211 1.5
      vertex -0.374763 -1.96457 4
      vertex -0.618033 -1.90211 4
    endloop
  endfacet
  facet normal -0.248686 -0.968584 -0
    outer loop
      vertex -0.374763 -1.96457 4
      vertex -0.618033 -1.90211 1.5
      vertex -0.374763 -1.96457 1.5
    endloop
  endfacet
  facet normal 0 0 -1
    outer loop
      vertex 1.5 0 0
      vertex 2.5 0 0
      vertex 2.48029 -0.313333 0
    endloop
  endfacet
  facet normal 0 0 -1
    outer loop
      vertex 1.48817 -0.188 0
      vertex 2.48029 -0.313333 0
      vertex 2.42146 -0.621724 0
    endloop
  endfacet
  facet normal 0 0 -1
    outer loop
      vertex 2.5 0 0
      vertex 1.5 0 0
      vertex 2.48029 0.313333 0
    endloop
  endfacet
  facet normal 0 0 -1
    outer loop
      vertex 1.45287 -0.373034 0
      vertex 2.42146 -0.621724 0
      vertex 2.32444 -0.920311 0
    endloop
  endfacet
  facet normal 0 0 -1
    outer loop
      vertex 1.48817 0.188 0
      vertex 2.48029 0.313333 0
      vertex 1.5 0 0
    endloop
  endfacet
  facet normal 0 0 -1
    outer loop
      vertex 1.39466 -0.552186 0
      vertex 2.32444 -0.920311 0
      vertex 2.19077 -1.20438 0
    endloop
  endfacet
  facet normal -0 0 -1
    outer loop
      vertex 2.48029 0.313333 0
      vertex 1.48817 0.188 0
      vertex 2.42146 0.621724 0
    endloop
  endfacet
  facet normal 0 0 -1
    outer loop
      vertex 1.31446 -0.722631 0
      vertex 2.19077 -1.20438 0
      vertex 2.02254 -1.46946 0
    endloop
  endfacet
  facet normal 0 0 -1
    outer loop
      vertex 1.45287 0.373034 0
      vertex 2.42146 0.621724 0
      vertex 1.48817 0.188 0
    endloop
  endfacet
  facet normal 0 0 -1
    outer loop
      vertex 1.21352 -0.881678 0
      vertex 2.02254 -1.46946 0
      vertex 1.82242 -1.71137 0
    endloop
  endfacet
  facet normal -0 0 -1
    outer loop
      vertex 2.42146 0.621724 0
      vertex 1.45287 0.373034 0
      vertex 2.32444 0.920311 0
    endloop
  endfacet
  facet normal 0 0 -1
    outer loop
      vertex 1.09345 -1.02682 0
      vertex 1.82242 -1.71137 0
      vertex 1.59356 -1.92628 0
    endloop
  endfacet
  facet normal 0 0 -1
    outer loop
      vertex 1.39466 0.552186 0
      vertex 2.32444 0.920311 0
      vertex 1.45287 0.373034 0
    endloop
  endfacet
  facet normal -0 0 -1
    outer loop
      vertex 2.32444 0.920311 0
      vertex 1.39466 0.552186 0
      vertex 2.19077 1.20438 0
    endloop
  endfacet
  facet normal 0 0 -1
    outer loop
      vertex 2.48029 -0.313333 0
      vertex 1.48817 -0.188 0
      vertex 1.5 0 0
    endloop
  endfacet
  facet normal 0 0 -1
    outer loop
      vertex 2.42146 -0.621724 0
      vertex 1.45287 -0.373034 0
      vertex 1.48817 -0.188 0
    endloop
  endfacet
  facet normal 0 0 -1
    outer loop
      vertex 2.32444 -0.920311 0
      vertex 1.39466 -0.552186 0
      vertex 1.45287 -0.373034 0
    endloop
  endfacet
  facet normal 0 0 -1
    outer loop
      vertex 0.956136 -1.15577 0
      vertex 1.59356 -1.92628 0
      vertex 1.33957 -2.11082 0
    endloop
  endfacet
  facet normal 0 0 -1
    outer loop
      vertex 2.19077 -1.20438 0
      vertex 1.31446 -0.722631 0
      vertex 1.39466 -0.552186 0
    endloop
  endfacet
  facet normal 0 0 -1
    outer loop
      vertex 2.02254 -1.46946 0
      vertex 1.21352 -0.881678 0
      vertex 1.31446 -0.722631 0
    endloop
  endfacet
  facet normal 0 0 -1
    outer loop
      vertex 1.82242 -1.71137 0
      vertex 1.09345 -1.02682 0
      vertex 1.21352 -0.881678 0
    endloop
  endfacet
  facet normal 0 0 -1
    outer loop
      vertex 0.80374 -1.26649 0
      vertex 1.33957 -2.11082 0
      vertex 1.06445 -2.26207 0
    endloop
  endfacet
  facet normal 0 0 -1
    outer loop
      vertex 1.59356 -1.92628 0
      vertex 0.956136 -1.15577 0
      vertex 1.09345 -1.02682 0
    endloop
  endfacet
  facet normal 0 0 -1
    outer loop
      vertex 1.33957 -2.11082 0
      vertex 0.80374 -1.26649 0
      vertex 0.956136 -1.15577 0
    endloop
  endfacet
  facet normal 0 0 -1
    outer loop
      vertex 0.638668 -1.35724 0
      vertex 1.06445 -2.26207 0
      vertex 0.772542 -2.37764 0
    endloop
  endfacet
  facet normal 0 0 -1
    outer loop
      vertex 1.06445 -2.26207 0
      vertex 0.638668 -1.35724 0
      vertex 0.80374 -1.26649 0
    endloop
  endfacet
  facet normal 0 0 -1
    outer loop
      vertex 0.463525 -1.42658 0
      vertex 0.772542 -2.37764 0
      vertex 0.468452 -2.45572 0
    endloop
  endfacet
  facet normal 0 0 -1
    outer loop
      vertex 0.772542 -2.37764 0
      vertex 0.463525 -1.42658 0
      vertex 0.638668 -1.35724 0
    endloop
  endfacet
  facet normal 0 0 -1
    outer loop
      vertex 0.468452 -2.45572 0
      vertex 0.281072 -1.47343 0
      vertex 0.463525 -1.42658 0
    endloop
  endfacet
  facet normal 0 0 -1
    outer loop
      vertex 0.156976 -2.49507 0
      vertex 0.281072 -1.47343 0
      vertex 0.468452 -2.45572 0
    endloop
  endfacet
  facet normal 0 0 -1
    outer loop
      vertex 0.156976 -2.49507 0
      vertex 0.0941849 -1.49704 0
      vertex 0.281072 -1.47343 0
    endloop
  endfacet
  facet normal 0 0 -1
    outer loop
      vertex 0.156976 -2.49507 0
      vertex -0.0941849 -1.49704 0
      vertex 0.0941849 -1.49704 0
    endloop
  endfacet
  facet normal 0 0 -1
    outer loop
      vertex -0.156976 -2.49507 0
      vertex -0.0941849 -1.49704 0
      vertex 0.156976 -2.49507 0
    endloop
  endfacet
  facet normal 0 0 -1
    outer loop
      vertex -0.156976 -2.49507 0
      vertex -0.281072 -1.47343 0
      vertex -0.0941849 -1.49704 0
    endloop
  endfacet
  facet normal 0 0 -1
    outer loop
      vertex -0.468452 -2.45572 0
      vertex -0.281072 -1.47343 0
      vertex -0.156976 -2.49507 0
    endloop
  endfacet
  facet normal -0 0 -1
    outer loop
      vertex -0.281072 -1.47343 0
      vertex -0.468452 -2.45572 0
      vertex -0.463525 -1.42658 0
    endloop
  endfacet
  facet normal 0 0 -1
    outer loop
      vertex -0.772542 -2.37764 0
      vertex -0.463525 -1.42658 0
      vertex -0.468452 -2.45572 0
    endloop
  endfacet
  facet normal -0 0 -1
    outer loop
      vertex -0.463525 -1.42658 0
      vertex -0.772542 -2.37764 0
      vertex -0.638668 -1.35724 0
    endloop
  endfacet
  facet normal 0 0 -1
    outer loop
      vertex -1.06445 -2.26207 0
      vertex -0.638668 -1.35724 0
      vertex -0.772542 -2.37764 0
    endloop
  endfacet
  facet normal -0 0 -1
    outer loop
      vertex -0.638668 -1.35724 0
      vertex -1.06445 -2.26207 0
      vertex -0.80374 -1.26649 0
    endloop
  endfacet
  facet normal 0 0 -1
    outer loop
      vertex -1.33957 -2.11082 0
      vertex -0.80374 -1.26649 0
      vertex -1.06445 -2.26207 0
    endloop
  endfacet
  facet normal -0 0 -1
    outer loop
      vertex -0.80374 -1.26649 0
      vertex -1.33957 -2.11082 0
      vertex -0.956136 -1.15577 0
    endloop
  endfacet
  facet normal 0 0 -1
    outer loop
      vertex -1.59356 -1.92628 0
      vertex -0.956136 -1.15577 0
      vertex -1.33957 -2.11082 0
    endloop
  endfacet
  facet normal -0 0 -1
    outer loop
      vertex -0.956136 -1.15577 0
      vertex -1.59356 -1.92628 0
      vertex -1.09345 -1.02682 0
    endloop
  endfacet
  facet normal 0 0 -1
    outer loop
      vertex -1.82242 -1.71137 0
      vertex -1.09345 -1.02682 0
      vertex -1.59356 -1.92628 0
    endloop
  endfacet
  facet normal -0 0 -1
    outer loop
      vertex -1.09345 -1.02682 0
      vertex -1.82242 -1.71137 0
      vertex -1.21352 -0.881678 0
    endloop
  endfacet
  facet normal 0 0 -1
    outer loop
      vertex -2.02254 -1.46946 0
      vertex -1.21352 -0.881678 0
      vertex -1.82242 -1.71137 0
    endloop
  endfacet
  facet normal -0 0 -1
    outer loop
      vertex -1.21352 -0.881678 0
      vertex -2.02254 -1.46946 0
      vertex -1.31446 -0.722631 0
    endloop
  endfacet
  facet normal -0 0 -1
    outer loop
      vertex -1.31446 -0.722631 0
      vertex -2.19077 -1.20438 0
      vertex -1.39466 -0.552186 0
    endloop
  endfacet
  facet normal 0 0 -1
    outer loop
      vertex -2.19077 -1.20438 0
      vertex -1.31446 -0.722631 0
      vertex -2.02254 -1.46946 0
    endloop
  endfacet
  facet normal 0 0 -1
    outer loop
      vertex 1.31446 0.722631 0
      vertex 2.19077 1.20438 0
      vertex 1.39466 0.552186 0
    endloop
  endfacet
  facet normal -0 0 -1
    outer loop
      vertex 2.19077 1.20438 0
      vertex 1.31446 0.722631 0
      vertex 2.02254 1.46946 0
    endloop
  endfacet
  facet normal 0 0 -1
    outer loop
      vertex 1.21352 0.881678 0
      vertex 2.02254 1.46946 0
      vertex 1.31446 0.722631 0
    endloop
  endfacet
  facet normal -0 0 -1
    outer loop
      vertex 2.02254 1.46946 0
      vertex 1.21352 0.881678 0
      vertex 1.82242 1.71137 0
    endloop
  endfacet
  facet normal 0 0 -1
    outer loop
      vertex 1.09345 1.02682 0
      vertex 1.82242 1.71137 0
      vertex 1.21352 0.881678 0
    endloop
  endfacet
  facet normal -0 0 -1
    outer loop
      vertex 1.82242 1.71137 0
      vertex 1.09345 1.02682 0
      vertex 1.59356 1.92628 0
    endloop
  endfacet
  facet normal 0 0 -1
    outer loop
      vertex 0.956136 1.15577 0
      vertex 1.59356 1.92628 0
      vertex 1.09345 1.02682 0
    endloop
  endfacet
  facet normal -0 0 -1
    outer loop
      vertex 1.59356 1.92628 0
      vertex 0.956136 1.15577 0
      vertex 1.33957 2.11082 0
    endloop
  endfacet
  facet normal 0 0 -1
    outer loop
      vertex 0.80374 1.26649 0
      vertex 1.33957 2.11082 0
      vertex 0.956136 1.15577 0
    endloop
  endfacet
  facet normal -0 0 -1
    outer loop
      vertex 1.33957 2.11082 0
      vertex 0.80374 1.26649 0
      vertex 1.06445 2.26207 0
    endloop
  endfacet
  facet normal 0 0 -1
    outer loop
      vertex 0.638668 1.35724 0
      vertex 1.06445 2.26207 0
      vertex 0.80374 1.26649 0
    endloop
  endfacet
  facet normal -0 0 -1
    outer loop
      vertex 1.06445 2.26207 0
      vertex 0.638668 1.35724 0
      vertex 0.772542 2.37764 0
    endloop
  endfacet
  facet normal 0 0 -1
    outer loop
      vertex 0.463525 1.42658 0
      vertex 0.772542 2.37764 0
      vertex 0.638668 1.35724 0
    endloop
  endfacet
  facet normal -0 0 -1
    outer loop
      vertex 0.772542 2.37764 0
      vertex 0.463525 1.42658 0
      vertex 0.468452 2.45572 0
    endloop
  endfacet
  facet normal 0 0 -1
    outer loop
      vertex 0.281072 1.47343 0
      vertex 0.468452 2.45572 0
      vertex 0.463525 1.42658 0
    endloop
  endfacet
  facet normal 0 0 -1
    outer loop
      vertex 0.281072 1.47343 0
      vertex 0.156976 2.49507 0
      vertex 0.468452 2.45572 0
    endloop
  endfacet
  facet normal 0 0 -1
    outer loop
      vertex 0.0941849 1.49704 0
      vertex 0.156976 2.49507 0
      vertex 0.281072 1.47343 0
    endloop
  endfacet
  facet normal 0 0 -1
    outer loop
      vertex -0.0941849 1.49704 0
      vertex 0.156976 2.49507 0
      vertex 0.0941849 1.49704 0
    endloop
  endfacet
  facet normal 0 0 -1
    outer loop
      vertex -0.0941849 1.49704 0
      vertex -0.156976 2.49507 0
      vertex 0.156976 2.49507 0
    endloop
  endfacet
  facet normal 0 0 -1
    outer loop
      vertex -0.281072 1.47343 0
      vertex -0.156976 2.49507 0
      vertex -0.0941849 1.49704 0
    endloop
  endfacet
  facet normal 0 0 -1
    outer loop
      vertex -0.468452 2.45572 0
      vertex -0.281072 1.47343 0
      vertex -0.463525 1.42658 0
    endloop
  endfacet
  facet normal 0 0 -1
    outer loop
      vertex -0.281072 1.47343 0
      vertex -0.468452 2.45572 0
      vertex -0.156976 2.49507 0
    endloop
  endfacet
  facet normal 0 0 -1
    outer loop
      vertex -0.772542 2.37764 0
      vertex -0.463525 1.42658 0
      vertex -0.638668 1.35724 0
    endloop
  endfacet
  facet normal 0 0 -1
    outer loop
      vertex -0.463525 1.42658 0
      vertex -0.772542 2.37764 0
      vertex -0.468452 2.45572 0
    endloop
  endfacet
  facet normal 0 0 -1
    outer loop
      vertex -1.06445 2.26207 0
      vertex -0.638668 1.35724 0
      vertex -0.80374 1.26649 0
    endloop
  endfacet
  facet normal 0 0 -1
    outer loop
      vertex -1.33957 2.11082 0
      vertex -0.80374 1.26649 0
      vertex -0.956136 1.15577 0
    endloop
  endfacet
  facet normal 0 0 -1
    outer loop
      vertex -0.638668 1.35724 0
      vertex -1.06445 2.26207 0
      vertex -0.772542 2.37764 0
    endloop
  endfacet
  facet normal 0 0 -1
    outer loop
      vertex -1.59356 1.92628 0
      vertex -0.956136 1.15577 0
      vertex -1.09345 1.02682 0
    endloop
  endfacet
  facet normal 0 0 -1
    outer loop
      vertex -1.82242 1.71137 0
      vertex -1.09345 1.02682 0
      vertex -1.21352 0.881678 0
    endloop
  endfacet
  facet normal 0 0 -1
    outer loop
      vertex -2.02254 1.46946 0
      vertex -1.21352 0.881678 0
      vertex -1.31446 0.722631 0
    endloop
  endfacet
  facet normal 0 0 -1
    outer loop
      vertex -0.80374 1.26649 0
      vertex -1.33957 2.11082 0
      vertex -1.06445 2.26207 0
    endloop
  endfacet
  facet normal 0 0 -1
    outer loop
      vertex -2.19077 1.20438 0
      vertex -1.31446 0.722631 0
      vertex -1.39466 0.552186 0
    endloop
  endfacet
  facet normal 0 0 -1
    outer loop
      vertex -2.32444 0.920311 0
      vertex -1.39466 0.552186 0
      vertex -1.45287 0.373034 0
    endloop
  endfacet
  facet normal 0 0 -1
    outer loop
      vertex -2.42146 0.621724 0
      vertex -1.45287 0.373034 0
      vertex -1.48817 0.188 0
    endloop
  endfacet
  facet normal 0 0 -1
    outer loop
      vertex -0.956136 1.15577 0
      vertex -1.59356 1.92628 0
      vertex -1.33957 2.11082 0
    endloop
  endfacet
  facet normal 0 0 -1
    outer loop
      vertex -2.48029 0.313333 0
      vertex -1.48817 0.188 0
      vertex -1.5 0 0
    endloop
  endfacet
  facet normal 0 0 -1
    outer loop
      vertex -2.32444 -0.920311 0
      vertex -1.39466 -0.552186 0
      vertex -2.19077 -1.20438 0
    endloop
  endfacet
  facet normal -0 0 -1
    outer loop
      vertex -1.39466 -0.552186 0
      vertex -2.32444 -0.920311 0
      vertex -1.45287 -0.373034 0
    endloop
  endfacet
  facet normal 0 0 -1
    outer loop
      vertex -1.09345 1.02682 0
      vertex -1.82242 1.71137 0
      vertex -1.59356 1.92628 0
    endloop
  endfacet
  facet normal 0 0 -1
    outer loop
      vertex -2.42146 -0.621724 0
      vertex -1.45287 -0.373034 0
      vertex -2.32444 -0.920311 0
    endloop
  endfacet
  facet normal 0 0 -1
    outer loop
      vertex -1.21352 0.881678 0
      vertex -2.02254 1.46946 0
      vertex -1.82242 1.71137 0
    endloop
  endfacet
  facet normal -0 0 -1
    outer loop
      vertex -1.45287 -0.373034 0
      vertex -2.42146 -0.621724 0
      vertex -1.48817 -0.188 0
    endloop
  endfacet
  facet normal 0 0 -1
    outer loop
      vertex -1.31446 0.722631 0
      vertex -2.19077 1.20438 0
      vertex -2.02254 1.46946 0
    endloop
  endfacet
  facet normal 0 0 -1
    outer loop
      vertex -2.48029 -0.313333 0
      vertex -1.48817 -0.188 0
      vertex -2.42146 -0.621724 0
    endloop
  endfacet
  facet normal 0 0 -1
    outer loop
      vertex -1.39466 0.552186 0
      vertex -2.32444 0.920311 0
      vertex -2.19077 1.20438 0
    endloop
  endfacet
  facet normal -0 0 -1
    outer loop
      vertex -1.48817 -0.188 0
      vertex -2.48029 -0.313333 0
      vertex -1.5 0 0
    endloop
  endfacet
  facet normal 0 0 -1
    outer loop
      vertex -1.45287 0.373034 0
      vertex -2.42146 0.621724 0
      vertex -2.32444 0.920311 0
    endloop
  endfacet
  facet normal 0 0 -1
    outer loop
      vertex -2.5 0 0
      vertex -1.5 0 0
      vertex -2.48029 -0.313333 0
    endloop
  endfacet
  facet normal 0 0 -1
    outer loop
      vertex -1.48817 0.188 0
      vertex -2.48029 0.313333 0
      vertex -2.42146 0.621724 0
    endloop
  endfacet
  facet normal 0 0 -1
    outer loop
      vertex -1.5 0 0
      vertex -2.5 0 0
      vertex -2.48029 0.313333 0
    endloop
  endfacet
  facet normal 0.248699 -0.968581 0
    outer loop
      vertex 0.468452 -2.45572 0
      vertex 0.772542 -2.37764 1.5
      vertex 0.468452 -2.45572 1.5
    endloop
  endfacet
  facet normal 0.248699 -0.968581 0
    outer loop
      vertex 0.772542 -2.37764 1.5
      vertex 0.468452 -2.45572 0
      vertex 0.772542 -2.37764 0
    endloop
  endfacet
  facet normal 0.982287 0.187385 0
    outer loop
      vertex 2.48029 0.313333 1.5
      vertex 2.42146 0.621724 0
      vertex 2.42146 0.621724 1.5
    endloop
  endfacet
  facet normal 0.982287 0.187385 0
    outer loop
      vertex 2.42146 0.621724 0
      vertex 2.48029 0.313333 1.5
      vertex 2.48029 0.313333 0
    endloop
  endfacet
  facet normal 0.998027 0.0627802 0
    outer loop
      vertex 2.5 0 1.5
      vertex 2.48029 0.313333 0
      vertex 2.48029 0.313333 1.5
    endloop
  endfacet
  facet normal 0.998027 0.0627802 0
    outer loop
      vertex 2.48029 0.313333 0
      vertex 2.5 0 1.5
      vertex 2.5 0 0
    endloop
  endfacet
  facet normal 0.951054 0.309026 0
    outer loop
      vertex 2.42146 0.621724 1.5
      vertex 2.32444 0.920311 0
      vertex 2.32444 0.920311 1.5
    endloop
  endfacet
  facet normal 0.951054 0.309026 0
    outer loop
      vertex 2.32444 0.920311 0
      vertex 2.42146 0.621724 1.5
      vertex 2.42146 0.621724 0
    endloop
  endfacet
  facet normal 0.368112 0.929781 -0
    outer loop
      vertex 1.06445 2.26207 0
      vertex 0.772542 2.37764 1.5
      vertex 1.06445 2.26207 1.5
    endloop
  endfacet
  facet normal 0.368112 0.929781 0
    outer loop
      vertex 0.772542 2.37764 1.5
      vertex 1.06445 2.26207 0
      vertex 0.772542 2.37764 0
    endloop
  endfacet
  facet normal -0.951054 0.309026 0
    outer loop
      vertex -2.42146 0.621724 0
      vertex -2.32444 0.920311 1.5
      vertex -2.32444 0.920311 0
    endloop
  endfacet
  facet normal -0.951054 0.309026 0
    outer loop
      vertex -2.32444 0.920311 1.5
      vertex -2.42146 0.621724 0
      vertex -2.42146 0.621724 1.5
    endloop
  endfacet
  facet normal -0.770522 -0.637414 0
    outer loop
      vertex -1.82242 -1.71137 0
      vertex -2.02254 -1.46946 1.5
      vertex -2.02254 -1.46946 0
    endloop
  endfacet
  facet normal -0.770522 -0.637414 0
    outer loop
      vertex -2.02254 -1.46946 1.5
      vertex -1.82242 -1.71137 0
      vertex -1.82242 -1.71137 1.5
    endloop
  endfacet
  facet normal 0.998027 -0.0627802 0
    outer loop
      vertex 2.48029 -0.313333 1.5
      vertex 2.5 0 0
      vertex 2.5 0 1.5
    endloop
  endfacet
  facet normal 0.998027 -0.0627802 0
    outer loop
      vertex 2.5 0 0
      vertex 2.48029 -0.313333 1.5
      vertex 2.48029 -0.313333 0
    endloop
  endfacet
  facet normal 0.90483 0.425772 0
    outer loop
      vertex 2.32444 0.920311 1.5
      vertex 2.19077 1.20438 0
      vertex 2.19077 1.20438 1.5
    endloop
  endfacet
  facet normal 0.90483 0.425772 0
    outer loop
      vertex 2.19077 1.20438 0
      vertex 2.32444 0.920311 1.5
      vertex 2.32444 0.920311 0
    endloop
  endfacet
  facet normal -0.125338 0.992114 0
    outer loop
      vertex -0.156976 2.49507 0
      vertex -0.468452 2.45572 1.5
      vertex -0.156976 2.49507 1.5
    endloop
  endfacet
  facet normal -0.125338 0.992114 0
    outer loop
      vertex -0.468452 2.45572 1.5
      vertex -0.156976 2.49507 0
      vertex -0.468452 2.45572 0
    endloop
  endfacet
  facet normal 0.125338 0.992114 -0
    outer loop
      vertex 0.468452 2.45572 0
      vertex 0.156976 2.49507 1.5
      vertex 0.468452 2.45572 1.5
    endloop
  endfacet
  facet normal 0.125338 0.992114 0
    outer loop
      vertex 0.156976 2.49507 1.5
      vertex 0.468452 2.45572 0
      vertex 0.156976 2.49507 0
    endloop
  endfacet
  facet normal 0.587797 -0.809009 0
    outer loop
      vertex 1.33957 -2.11082 0
      vertex 1.59356 -1.92628 1.5
      vertex 1.33957 -2.11082 1.5
    endloop
  endfacet
  facet normal 0.587797 -0.809009 0
    outer loop
      vertex 1.59356 -1.92628 1.5
      vertex 1.33957 -2.11082 0
      vertex 1.59356 -1.92628 0
    endloop
  endfacet
  facet normal -0.587797 -0.809009 0
    outer loop
      vertex -1.59356 -1.92628 0
      vertex -1.33957 -2.11082 1.5
      vertex -1.59356 -1.92628 1.5
    endloop
  endfacet
  facet normal -0.587797 -0.809009 -0
    outer loop
      vertex -1.33957 -2.11082 1.5
      vertex -1.59356 -1.92628 0
      vertex -1.33957 -2.11082 0
    endloop
  endfacet
  facet normal -0.684541 0.728975 0
    outer loop
      vertex -1.59356 1.92628 0
      vertex -1.82242 1.71137 1.5
      vertex -1.59356 1.92628 1.5
    endloop
  endfacet
  facet normal -0.684541 0.728975 0
    outer loop
      vertex -1.82242 1.71137 1.5
      vertex -1.59356 1.92628 0
      vertex -1.82242 1.71137 0
    endloop
  endfacet
  facet normal 0.982287 -0.187385 0
    outer loop
      vertex 2.42146 -0.621724 1.5
      vertex 2.48029 -0.313333 0
      vertex 2.48029 -0.313333 1.5
    endloop
  endfacet
  facet normal 0.982287 -0.187385 0
    outer loop
      vertex 2.48029 -0.313333 0
      vertex 2.42146 -0.621724 1.5
      vertex 2.42146 -0.621724 0
    endloop
  endfacet
  facet normal 0.368112 -0.929781 0
    outer loop
      vertex 0.772542 -2.37764 0
      vertex 1.06445 -2.26207 1.5
      vertex 0.772542 -2.37764 1.5
    endloop
  endfacet
  facet normal 0.368112 -0.929781 0
    outer loop
      vertex 1.06445 -2.26207 1.5
      vertex 0.772542 -2.37764 0
      vertex 1.06445 -2.26207 0
    endloop
  endfacet
  facet normal 0.684541 -0.728975 0
    outer loop
      vertex 1.59356 -1.92628 0
      vertex 1.82242 -1.71137 1.5
      vertex 1.59356 -1.92628 1.5
    endloop
  endfacet
  facet normal 0.684541 -0.728975 0
    outer loop
      vertex 1.82242 -1.71137 1.5
      vertex 1.59356 -1.92628 0
      vertex 1.82242 -1.71137 0
    endloop
  endfacet
  facet normal 0.587797 0.809009 -0
    outer loop
      vertex 1.59356 1.92628 0
      vertex 1.33957 2.11082 1.5
      vertex 1.59356 1.92628 1.5
    endloop
  endfacet
  facet normal 0.587797 0.809009 0
    outer loop
      vertex 1.33957 2.11082 1.5
      vertex 1.59356 1.92628 0
      vertex 1.33957 2.11082 0
    endloop
  endfacet
  facet normal -0.368112 0.929781 0
    outer loop
      vertex -0.772542 2.37764 0
      vertex -1.06445 2.26207 1.5
      vertex -0.772542 2.37764 1.5
    endloop
  endfacet
  facet normal -0.368112 0.929781 0
    outer loop
      vertex -1.06445 2.26207 1.5
      vertex -0.772542 2.37764 0
      vertex -1.06445 2.26207 0
    endloop
  endfacet
  facet normal 0.844321 0.535838 0
    outer loop
      vertex 2.19077 1.20438 1.5
      vertex 2.02254 1.46946 0
      vertex 2.02254 1.46946 1.5
    endloop
  endfacet
  facet normal 0.844321 0.535838 0
    outer loop
      vertex 2.02254 1.46946 0
      vertex 2.19077 1.20438 1.5
      vertex 2.19077 1.20438 0
    endloop
  endfacet
  facet normal -0.248699 0.968581 0
    outer loop
      vertex -0.468452 2.45572 0
      vertex -0.772542 2.37764 1.5
      vertex -0.468452 2.45572 1.5
    endloop
  endfacet
  facet normal -0.248699 0.968581 0
    outer loop
      vertex -0.772542 2.37764 1.5
      vertex -0.468452 2.45572 0
      vertex -0.772542 2.37764 0
    endloop
  endfacet
  facet normal 0.481757 0.876305 -0
    outer loop
      vertex 1.33957 2.11082 0
      vertex 1.06445 2.26207 1.5
      vertex 1.33957 2.11082 1.5
    endloop
  endfacet
  facet normal 0.481757 0.876305 0
    outer loop
      vertex 1.06445 2.26207 1.5
      vertex 1.33957 2.11082 0
      vertex 1.06445 2.26207 0
    endloop
  endfacet
  facet normal -0.248699 -0.968581 0
    outer loop
      vertex -0.772542 -2.37764 0
      vertex -0.468452 -2.45572 1.5
      vertex -0.772542 -2.37764 1.5
    endloop
  endfacet
  facet normal -0.248699 -0.968581 -0
    outer loop
      vertex -0.468452 -2.45572 1.5
      vertex -0.772542 -2.37764 0
      vertex -0.468452 -2.45572 0
    endloop
  endfacet
  facet normal -0.587797 0.809009 0
    outer loop
      vertex -1.33957 2.11082 0
      vertex -1.59356 1.92628 1.5
      vertex -1.33957 2.11082 1.5
    endloop
  endfacet
  facet normal -0.587797 0.809009 0
    outer loop
      vertex -1.59356 1.92628 1.5
      vertex -1.33957 2.11082 0
      vertex -1.59356 1.92628 0
    endloop
  endfacet
  facet normal 0.125338 -0.992114 0
    outer loop
      vertex 0.156976 -2.49507 0
      vertex 0.468452 -2.45572 1.5
      vertex 0.156976 -2.49507 1.5
    endloop
  endfacet
  facet normal 0.125338 -0.992114 0
    outer loop
      vertex 0.468452 -2.45572 1.5
      vertex 0.156976 -2.49507 0
      vertex 0.468452 -2.45572 0
    endloop
  endfacet
  facet normal 0.684541 0.728975 -0
    outer loop
      vertex 1.82242 1.71137 0
      vertex 1.59356 1.92628 1.5
      vertex 1.82242 1.71137 1.5
    endloop
  endfacet
  facet normal 0.684541 0.728975 0
    outer loop
      vertex 1.59356 1.92628 1.5
      vertex 1.82242 1.71137 0
      vertex 1.59356 1.92628 0
    endloop
  endfacet
  facet normal 0.770522 -0.637414 0
    outer loop
      vertex 1.82242 -1.71137 1.5
      vertex 2.02254 -1.46946 0
      vertex 2.02254 -1.46946 1.5
    endloop
  endfacet
  facet normal 0.770522 -0.637414 0
    outer loop
      vertex 2.02254 -1.46946 0
      vertex 1.82242 -1.71137 1.5
      vertex 1.82242 -1.71137 0
    endloop
  endfacet
  facet normal -0.951054 -0.309026 0
    outer loop
      vertex -2.32444 -0.920311 0
      vertex -2.42146 -0.621724 1.5
      vertex -2.42146 -0.621724 0
    endloop
  endfacet
  facet normal -0.951054 -0.309026 0
    outer loop
      vertex -2.42146 -0.621724 1.5
      vertex -2.32444 -0.920311 0
      vertex -2.32444 -0.920311 1.5
    endloop
  endfacet
  facet normal 0.770522 0.637414 0
    outer loop
      vertex 2.02254 1.46946 1.5
      vertex 1.82242 1.71137 0
      vertex 1.82242 1.71137 1.5
    endloop
  endfacet
  facet normal 0.770522 0.637414 0
    outer loop
      vertex 1.82242 1.71137 0
      vertex 2.02254 1.46946 1.5
      vertex 2.02254 1.46946 0
    endloop
  endfacet
  facet normal 0 0 1
    outer loop
      vertex 2 0 1.5
      vertex 2.5 0 1.5
      vertex 2.48029 0.313333 1.5
    endloop
  endfacet
  facet normal 0 0 1
    outer loop
      vertex 1.98423 0.250666 1.5
      vertex 2.48029 0.313333 1.5
      vertex 2.42146 0.621724 1.5
    endloop
  endfacet
  facet normal 0 0 1
    outer loop
      vertex 2.5 0 1.5
      vertex 2 0 1.5
      vertex 2.48029 -0.313333 1.5
    endloop
  endfacet
  facet normal 0 0 1
    outer loop
      vertex 1.93717 0.497379 1.5
      vertex 2.42146 0.621724 1.5
      vertex 2.32444 0.920311 1.5
    endloop
  endfacet
  facet normal -0 0 1
    outer loop
      vertex 1.98423 -0.250666 1.5
      vertex 2.48029 -0.313333 1.5
      vertex 2 0 1.5
    endloop
  endfacet
  facet normal 0 0 1
    outer loop
      vertex 1.85955 0.736249 1.5
      vertex 2.32444 0.920311 1.5
      vertex 2.19077 1.20438 1.5
    endloop
  endfacet
  facet normal 0 0 1
    outer loop
      vertex 2.48029 -0.313333 1.5
      vertex 1.98423 -0.250666 1.5
      vertex 2.42146 -0.621724 1.5
    endloop
  endfacet
  facet normal 0 0 1
    outer loop
      vertex 1.75261 0.963507 1.5
      vertex 2.19077 1.20438 1.5
      vertex 2.02254 1.46946 1.5
    endloop
  endfacet
  facet normal -0 0 1
    outer loop
      vertex 1.93717 -0.497379 1.5
      vertex 2.42146 -0.621724 1.5
      vertex 1.98423 -0.250666 1.5
    endloop
  endfacet
  facet normal 0 0 1
    outer loop
      vertex 2.42146 -0.621724 1.5
      vertex 1.93717 -0.497379 1.5
      vertex 2.32444 -0.920311 1.5
    endloop
  endfacet
  facet normal 0 0 1
    outer loop
      vertex 2.48029 0.313333 1.5
      vertex 1.98423 0.250666 1.5
      vertex 2 0 1.5
    endloop
  endfacet
  facet normal 0 0 1
    outer loop
      vertex 2.42146 0.621724 1.5
      vertex 1.93717 0.497379 1.5
      vertex 1.98423 0.250666 1.5
    endloop
  endfacet
  facet normal 0 0 1
    outer loop
      vertex 2.32444 0.920311 1.5
      vertex 1.85955 0.736249 1.5
      vertex 1.93717 0.497379 1.5
    endloop
  endfacet
  facet normal 0 0 1
    outer loop
      vertex 1.61803 1.17557 1.5
      vertex 2.02254 1.46946 1.5
      vertex 1.82242 1.71137 1.5
    endloop
  endfacet
  facet normal 0 0 1
    outer loop
      vertex 2.19077 1.20438 1.5
      vertex 1.75261 0.963507 1.5
      vertex 1.85955 0.736249 1.5
    endloop
  endfacet
  facet normal 0 0 1
    outer loop
      vertex 2.02254 1.46946 1.5
      vertex 1.61803 1.17557 1.5
      vertex 1.75261 0.963507 1.5
    endloop
  endfacet
  facet normal 0 0 1
    outer loop
      vertex 1.45794 1.36909 1.5
      vertex 1.82242 1.71137 1.5
      vertex 1.59356 1.92628 1.5
    endloop
  endfacet
  facet normal 0 0 1
    outer loop
      vertex 1.82242 1.71137 1.5
      vertex 1.45794 1.36909 1.5
      vertex 1.61803 1.17557 1.5
    endloop
  endfacet
  facet normal 0 0 1
    outer loop
      vertex 1.27485 1.54103 1.5
      vertex 1.59356 1.92628 1.5
      vertex 1.33957 2.11082 1.5
    endloop
  endfacet
  facet normal 0 0 1
    outer loop
      vertex 1.59356 1.92628 1.5
      vertex 1.27485 1.54103 1.5
      vertex 1.45794 1.36909 1.5
    endloop
  endfacet
  facet normal 0 0 1
    outer loop
      vertex 1.33957 2.11082 1.5
      vertex 1.07165 1.68865 1.5
      vertex 1.27485 1.54103 1.5
    endloop
  endfacet
  facet normal 0 0 1
    outer loop
      vertex 1.06445 2.26207 1.5
      vertex 1.07165 1.68865 1.5
      vertex 1.33957 2.11082 1.5
    endloop
  endfacet
  facet normal 0 0 1
    outer loop
      vertex 1.06445 2.26207 1.5
      vertex 0.851558 1.80965 1.5
      vertex 1.07165 1.68865 1.5
    endloop
  endfacet
  facet normal 0 0 1
    outer loop
      vertex 0.772542 2.37764 1.5
      vertex 0.851558 1.80965 1.5
      vertex 1.06445 2.26207 1.5
    endloop
  endfacet
  facet normal 0 0 1
    outer loop
      vertex 0.772542 2.37764 1.5
      vertex 0.618033 1.90211 1.5
      vertex 0.851558 1.80965 1.5
    endloop
  endfacet
  facet normal 0 0 1
    outer loop
      vertex 0.468452 2.45572 1.5
      vertex 0.618033 1.90211 1.5
      vertex 0.772542 2.37764 1.5
    endloop
  endfacet
  facet normal 0 0 1
    outer loop
      vertex 0.468452 2.45572 1.5
      vertex 0.374763 1.96457 1.5
      vertex 0.618033 1.90211 1.5
    endloop
  endfacet
  facet normal 0 0 1
    outer loop
      vertex 0.156976 2.49507 1.5
      vertex 0.374763 1.96457 1.5
      vertex 0.468452 2.45572 1.5
    endloop
  endfacet
  facet normal 0 0 1
    outer loop
      vertex 0.156976 2.49507 1.5
      vertex 0.125581 1.99605 1.5
      vertex 0.374763 1.96457 1.5
    endloop
  endfacet
  facet normal 0 0 1
    outer loop
      vertex 0.156976 2.49507 1.5
      vertex -0.125581 1.99605 1.5
      vertex 0.125581 1.99605 1.5
    endloop
  endfacet
  facet normal -0 0 1
    outer loop
      vertex -0.156976 2.49507 1.5
      vertex -0.125581 1.99605 1.5
      vertex 0.156976 2.49507 1.5
    endloop
  endfacet
  facet normal 0 0 1
    outer loop
      vertex -0.156976 2.49507 1.5
      vertex -0.374763 1.96457 1.5
      vertex -0.125581 1.99605 1.5
    endloop
  endfacet
  facet normal -0 0 1
    outer loop
      vertex -0.468452 2.45572 1.5
      vertex -0.374763 1.96457 1.5
      vertex -0.156976 2.49507 1.5
    endloop
  endfacet
  facet normal 0 0 1
    outer loop
      vertex -0.468452 2.45572 1.5
      vertex -0.618033 1.90211 1.5
      vertex -0.374763 1.96457 1.5
    endloop
  endfacet
  facet normal -0 0 1
    outer loop
      vertex -0.772542 2.37764 1.5
      vertex -0.618033 1.90211 1.5
      vertex -0.468452 2.45572 1.5
    endloop
  endfacet
  facet normal 0 0 1
    outer loop
      vertex -0.772542 2.37764 1.5
      vertex -0.851558 1.80965 1.5
      vertex -0.618033 1.90211 1.5
    endloop
  endfacet
  facet normal -0 0 1
    outer loop
      vertex -1.06445 2.26207 1.5
      vertex -0.851558 1.80965 1.5
      vertex -0.772542 2.37764 1.5
    endloop
  endfacet
  facet normal 0 0 1
    outer loop
      vertex -1.06445 2.26207 1.5
      vertex -1.07165 1.68865 1.5
      vertex -0.851558 1.80965 1.5
    endloop
  endfacet
  facet normal -0 0 1
    outer loop
      vertex -1.33957 2.11082 1.5
      vertex -1.07165 1.68865 1.5
      vertex -1.06445 2.26207 1.5
    endloop
  endfacet
  facet normal 0 0 1
    outer loop
      vertex -1.07165 1.68865 1.5
      vertex -1.33957 2.11082 1.5
      vertex -1.27485 1.54103 1.5
    endloop
  endfacet
  facet normal -0 0 1
    outer loop
      vertex -1.59356 1.92628 1.5
      vertex -1.27485 1.54103 1.5
      vertex -1.33957 2.11082 1.5
    endloop
  endfacet
  facet normal 0 0 1
    outer loop
      vertex -1.27485 1.54103 1.5
      vertex -1.59356 1.92628 1.5
      vertex -1.45794 1.36909 1.5
    endloop
  endfacet
  facet normal -0 0 1
    outer loop
      vertex -1.82242 1.71137 1.5
      vertex -1.45794 1.36909 1.5
      vertex -1.59356 1.92628 1.5
    endloop
  endfacet
  facet normal 0 0 1
    outer loop
      vertex -1.45794 1.36909 1.5
      vertex -1.82242 1.71137 1.5
      vertex -1.61803 1.17557 1.5
    endloop
  endfacet
  facet normal -0 0 1
    outer loop
      vertex -2.02254 1.46946 1.5
      vertex -1.61803 1.17557 1.5
      vertex -1.82242 1.71137 1.5
    endloop
  endfacet
  facet normal 0 0 1
    outer loop
      vertex -1.61803 1.17557 1.5
      vertex -2.02254 1.46946 1.5
      vertex -1.75261 0.963507 1.5
    endloop
  endfacet
  facet normal -0 0 1
    outer loop
      vertex -2.19077 1.20438 1.5
      vertex -1.75261 0.963507 1.5
      vertex -2.02254 1.46946 1.5
    endloop
  endfacet
  facet normal 0 0 1
    outer loop
      vertex -1.75261 0.963507 1.5
      vertex -2.19077 1.20438 1.5
      vertex -1.85955 0.736249 1.5
    endloop
  endfacet
  facet normal 0 0 1
    outer loop
      vertex -1.85955 0.736249 1.5
      vertex -2.32444 0.920311 1.5
      vertex -1.93717 0.497379 1.5
    endloop
  endfacet
  facet normal -0 0 1
    outer loop
      vertex -2.32444 0.920311 1.5
      vertex -1.85955 0.736249 1.5
      vertex -2.19077 1.20438 1.5
    endloop
  endfacet
  facet normal -0 0 1
    outer loop
      vertex 1.85955 -0.736249 1.5
      vertex 2.32444 -0.920311 1.5
      vertex 1.93717 -0.497379 1.5
    endloop
  endfacet
  facet normal 0 0 1
    outer loop
      vertex 2.32444 -0.920311 1.5
      vertex 1.85955 -0.736249 1.5
      vertex 2.19077 -1.20438 1.5
    endloop
  endfacet
  facet normal -0 0 1
    outer loop
      vertex 1.75261 -0.963507 1.5
      vertex 2.19077 -1.20438 1.5
      vertex 1.85955 -0.736249 1.5
    endloop
  endfacet
  facet normal 0 0 1
    outer loop
      vertex 2.19077 -1.20438 1.5
      vertex 1.75261 -0.963507 1.5
      vertex 2.02254 -1.46946 1.5
    endloop
  endfacet
  facet normal -0 0 1
    outer loop
      vertex 1.61803 -1.17557 1.5
      vertex 2.02254 -1.46946 1.5
      vertex 1.75261 -0.963507 1.5
    endloop
  endfacet
  facet normal 0 0 1
    outer loop
      vertex 2.02254 -1.46946 1.5
      vertex 1.61803 -1.17557 1.5
      vertex 1.82242 -1.71137 1.5
    endloop
  endfacet
  facet normal -0 0 1
    outer loop
      vertex 1.45794 -1.36909 1.5
      vertex 1.82242 -1.71137 1.5
      vertex 1.61803 -1.17557 1.5
    endloop
  endfacet
  facet normal 0 0 1
    outer loop
      vertex 1.82242 -1.71137 1.5
      vertex 1.45794 -1.36909 1.5
      vertex 1.59356 -1.92628 1.5
    endloop
  endfacet
  facet normal -0 0 1
    outer loop
      vertex 1.27485 -1.54103 1.5
      vertex 1.59356 -1.92628 1.5
      vertex 1.45794 -1.36909 1.5
    endloop
  endfacet
  facet normal 0 0 1
    outer loop
      vertex 1.59356 -1.92628 1.5
      vertex 1.27485 -1.54103 1.5
      vertex 1.33957 -2.11082 1.5
    endloop
  endfacet
  facet normal -0 0 1
    outer loop
      vertex 1.07165 -1.68865 1.5
      vertex 1.33957 -2.11082 1.5
      vertex 1.27485 -1.54103 1.5
    endloop
  endfacet
  facet normal 0 0 1
    outer loop
      vertex 1.07165 -1.68865 1.5
      vertex 1.06445 -2.26207 1.5
      vertex 1.33957 -2.11082 1.5
    endloop
  endfacet
  facet normal -0 0 1
    outer loop
      vertex 0.851558 -1.80965 1.5
      vertex 1.06445 -2.26207 1.5
      vertex 1.07165 -1.68865 1.5
    endloop
  endfacet
  facet normal 0 0 1
    outer loop
      vertex 0.851558 -1.80965 1.5
      vertex 0.772542 -2.37764 1.5
      vertex 1.06445 -2.26207 1.5
    endloop
  endfacet
  facet normal -0 0 1
    outer loop
      vertex 0.618033 -1.90211 1.5
      vertex 0.772542 -2.37764 1.5
      vertex 0.851558 -1.80965 1.5
    endloop
  endfacet
  facet normal 0 0 1
    outer loop
      vertex 0.618033 -1.90211 1.5
      vertex 0.468452 -2.45572 1.5
      vertex 0.772542 -2.37764 1.5
    endloop
  endfacet
  facet normal -0 0 1
    outer loop
      vertex 0.374763 -1.96457 1.5
      vertex 0.468452 -2.45572 1.5
      vertex 0.618033 -1.90211 1.5
    endloop
  endfacet
  facet normal 0 0 1
    outer loop
      vertex 0.374763 -1.96457 1.5
      vertex 0.156976 -2.49507 1.5
      vertex 0.468452 -2.45572 1.5
    endloop
  endfacet
  facet normal -0 0 1
    outer loop
      vertex 0.125581 -1.99605 1.5
      vertex 0.156976 -2.49507 1.5
      vertex 0.374763 -1.96457 1.5
    endloop
  endfacet
  facet normal -0 0 1
    outer loop
      vertex -0.125581 -1.99605 1.5
      vertex 0.156976 -2.49507 1.5
      vertex 0.125581 -1.99605 1.5
    endloop
  endfacet
  facet normal 0 0 1
    outer loop
      vertex -0.125581 -1.99605 1.5
      vertex -0.156976 -2.49507 1.5
      vertex 0.156976 -2.49507 1.5
    endloop
  endfacet
  facet normal 0 0 1
    outer loop
      vertex -0.374763 -1.96457 1.5
      vertex -0.156976 -2.49507 1.5
      vertex -0.125581 -1.99605 1.5
    endloop
  endfacet
  facet normal 0 0 1
    outer loop
      vertex -0.374763 -1.96457 1.5
      vertex -0.468452 -2.45572 1.5
      vertex -0.156976 -2.49507 1.5
    endloop
  endfacet
  facet normal 0 0 1
    outer loop
      vertex -0.618033 -1.90211 1.5
      vertex -0.468452 -2.45572 1.5
      vertex -0.374763 -1.96457 1.5
    endloop
  endfacet
  facet normal 0 0 1
    outer loop
      vertex -0.618033 -1.90211 1.5
      vertex -0.772542 -2.37764 1.5
      vertex -0.468452 -2.45572 1.5
    endloop
  endfacet
  facet normal 0 0 1
    outer loop
      vertex -0.851558 -1.80965 1.5
      vertex -0.772542 -2.37764 1.5
      vertex -0.618033 -1.90211 1.5
    endloop
  endfacet
  facet normal 0 0 1
    outer loop
      vertex -0.851558 -1.80965 1.5
      vertex -1.06445 -2.26207 1.5
      vertex -0.772542 -2.37764 1.5
    endloop
  endfacet
  facet normal 0 0 1
    outer loop
      vertex -1.07165 -1.68865 1.5
      vertex -1.06445 -2.26207 1.5
      vertex -0.851558 -1.80965 1.5
    endloop
  endfacet
  facet normal 0 0 1
    outer loop
      vertex -1.33957 -2.11082 1.5
      vertex -1.07165 -1.68865 1.5
      vertex -1.27485 -1.54103 1.5
    endloop
  endfacet
  facet normal 0 0 1
    outer loop
      vertex -1.07165 -1.68865 1.5
      vertex -1.33957 -2.11082 1.5
      vertex -1.06445 -2.26207 1.5
    endloop
  endfacet
  facet normal 0 0 1
    outer loop
      vertex -1.59356 -1.92628 1.5
      vertex -1.27485 -1.54103 1.5
      vertex -1.45794 -1.36909 1.5
    endloop
  endfacet
  facet normal 0 0 1
    outer loop
      vertex -1.27485 -1.54103 1.5
      vertex -1.59356 -1.92628 1.5
      vertex -1.33957 -2.11082 1.5
    endloop
  endfacet
  facet normal 0 0 1
    outer loop
      vertex -1.82242 -1.71137 1.5
      vertex -1.45794 -1.36909 1.5
      vertex -1.61803 -1.17557 1.5
    endloop
  endfacet
  facet normal 0 0 1
    outer loop
      vertex -2.02254 -1.46946 1.5
      vertex -1.61803 -1.17557 1.5
      vertex -1.75261 -0.963507 1.5
    endloop
  endfacet
  facet normal 0 0 1
    outer loop
      vertex -1.45794 -1.36909 1.5
      vertex -1.82242 -1.71137 1.5
      vertex -1.59356 -1.92628 1.5
    endloop
  endfacet
  facet normal 0 0 1
    outer loop
      vertex -2.19077 -1.20438 1.5
      vertex -1.75261 -0.963507 1.5
      vertex -1.85955 -0.736249 1.5
    endloop
  endfacet
  facet normal 0 0 1
    outer loop
      vertex -2.32444 -0.920311 1.5
      vertex -1.85955 -0.736249 1.5
      vertex -1.93717 -0.497379 1.5
    endloop
  endfacet
  facet normal 0 0 1
    outer loop
      vertex -2.42146 -0.621724 1.5
      vertex -1.93717 -0.497379 1.5
      vertex -1.98423 -0.250666 1.5
    endloop
  endfacet
  facet normal 0 0 1
    outer loop
      vertex -1.61803 -1.17557 1.5
      vertex -2.02254 -1.46946 1.5
      vertex -1.82242 -1.71137 1.5
    endloop
  endfacet
  facet normal 0 0 1
    outer loop
      vertex -2.48029 -0.313333 1.5
      vertex -1.98423 -0.250666 1.5
      vertex -2 0 1.5
    endloop
  endfacet
  facet normal -0 0 1
    outer loop
      vertex -2.42146 0.621724 1.5
      vertex -1.93717 0.497379 1.5
      vertex -2.32444 0.920311 1.5
    endloop
  endfacet
  facet normal 0 0 1
    outer loop
      vertex -1.93717 0.497379 1.5
      vertex -2.42146 0.621724 1.5
      vertex -1.98423 0.250666 1.5
    endloop
  endfacet
  facet normal 0 0 1
    outer loop
      vertex -1.75261 -0.963507 1.5
      vertex -2.19077 -1.20438 1.5
      vertex -2.02254 -1.46946 1.5
    endloop
  endfacet
  facet normal -0 0 1
    outer loop
      vertex -2.48029 0.313333 1.5
      vertex -1.98423 0.250666 1.5
      vertex -2.42146 0.621724 1.5
    endloop
  endfacet
  facet normal 0 0 1
    outer loop
      vertex -1.85955 -0.736249 1.5
      vertex -2.32444 -0.920311 1.5
      vertex -2.19077 -1.20438 1.5
    endloop
  endfacet
  facet normal 0 0 1
    outer loop
      vertex -1.98423 0.250666 1.5
      vertex -2.48029 0.313333 1.5
      vertex -2 0 1.5
    endloop
  endfacet
  facet normal 0 0 1
    outer loop
      vertex -1.93717 -0.497379 1.5
      vertex -2.42146 -0.621724 1.5
      vertex -2.32444 -0.920311 1.5
    endloop
  endfacet
  facet normal 0 0 1
    outer loop
      vertex -2.5 0 1.5
      vertex -2 0 1.5
      vertex -2.48029 0.313333 1.5
    endloop
  endfacet
  facet normal 0 0 1
    outer loop
      vertex -1.98423 -0.250666 1.5
      vertex -2.48029 -0.313333 1.5
      vertex -2.42146 -0.621724 1.5
    endloop
  endfacet
  facet normal 0 0 1
    outer loop
      vertex -2 0 1.5
      vertex -2.5 0 1.5
      vertex -2.48029 -0.313333 1.5
    endloop
  endfacet
  facet normal 0.951054 -0.309026 0
    outer loop
      vertex 2.32444 -0.920311 1.5
      vertex 2.42146 -0.621724 0
      vertex 2.42146 -0.621724 1.5
    endloop
  endfacet
  facet normal 0.951054 -0.309026 0
    outer loop
      vertex 2.42146 -0.621724 0
      vertex 2.32444 -0.920311 1.5
      vertex 2.32444 -0.920311 0
    endloop
  endfacet
  facet normal -0.368112 -0.929781 0
    outer loop
      vertex -1.06445 -2.26207 0
      vertex -0.772542 -2.37764 1.5
      vertex -1.06445 -2.26207 1.5
    endloop
  endfacet
  facet normal -0.368112 -0.929781 -0
    outer loop
      vertex -0.772542 -2.37764 1.5
      vertex -1.06445 -2.26207 0
      vertex -0.772542 -2.37764 0
    endloop
  endfacet
  facet normal 0.844321 -0.535838 0
    outer loop
      vertex 2.02254 -1.46946 1.5
      vertex 2.19077 -1.20438 0
      vertex 2.19077 -1.20438 1.5
    endloop
  endfacet
  facet normal 0.844321 -0.535838 0
    outer loop
      vertex 2.19077 -1.20438 0
      vertex 2.02254 -1.46946 1.5
      vertex 2.02254 -1.46946 0
    endloop
  endfacet
  facet normal -0.481757 -0.876305 0
    outer loop
      vertex -1.33957 -2.11082 0
      vertex -1.06445 -2.26207 1.5
      vertex -1.33957 -2.11082 1.5
    endloop
  endfacet
  facet normal -0.481757 -0.876305 -0
    outer loop
      vertex -1.06445 -2.26207 1.5
      vertex -1.33957 -2.11082 0
      vertex -1.06445 -2.26207 0
    endloop
  endfacet
  facet normal 0.90483 -0.425772 0
    outer loop
      vertex 2.19077 -1.20438 1.5
      vertex 2.32444 -0.920311 0
      vertex 2.32444 -0.920311 1.5
    endloop
  endfacet
  facet normal 0.90483 -0.425772 0
    outer loop
      vertex 2.32444 -0.920311 0
      vertex 2.19077 -1.20438 1.5
      vertex 2.19077 -1.20438 0
    endloop
  endfacet
  facet normal -0.684541 -0.728975 0
    outer loop
      vertex -1.82242 -1.71137 0
      vertex -1.59356 -1.92628 1.5
      vertex -1.82242 -1.71137 1.5
    endloop
  endfacet
  facet normal -0.684541 -0.728975 -0
    outer loop
      vertex -1.59356 -1.92628 1.5
      vertex -1.82242 -1.71137 0
      vertex -1.59356 -1.92628 0
    endloop
  endfacet
  facet normal -0.998027 -0.0627802 0
    outer loop
      vertex -2.48029 -0.313333 0
      vertex -2.5 0 1.5
      vertex -2.5 0 0
    endloop
  endfacet
  facet normal -0.998027 -0.0627802 0
    outer loop
      vertex -2.5 0 1.5
      vertex -2.48029 -0.313333 0
      vertex -2.48029 -0.313333 1.5
    endloop
  endfacet
  facet normal -0.125338 -0.992114 0
    outer loop
      vertex -0.468452 -2.45572 0
      vertex -0.156976 -2.49507 1.5
      vertex -0.468452 -2.45572 1.5
    endloop
  endfacet
  facet normal -0.125338 -0.992114 -0
    outer loop
      vertex -0.156976 -2.49507 1.5
      vertex -0.468452 -2.45572 0
      vertex -0.156976 -2.49507 0
    endloop
  endfacet
  facet normal -0.90483 -0.425772 0
    outer loop
      vertex -2.19077 -1.20438 0
      vertex -2.32444 -0.920311 1.5
      vertex -2.32444 -0.920311 0
    endloop
  endfacet
  facet normal -0.90483 -0.425772 0
    outer loop
      vertex -2.32444 -0.920311 1.5
      vertex -2.19077 -1.20438 0
      vertex -2.19077 -1.20438 1.5
    endloop
  endfacet
  facet normal -0.982287 -0.187385 0
    outer loop
      vertex -2.42146 -0.621724 0
      vertex -2.48029 -0.313333 1.5
      vertex -2.48029 -0.313333 0
    endloop
  endfacet
  facet normal -0.982287 -0.187385 0
    outer loop
      vertex -2.48029 -0.313333 1.5
      vertex -2.42146 -0.621724 0
      vertex -2.42146 -0.621724 1.5
    endloop
  endfacet
  facet normal -0.998027 0.0627802 0
    outer loop
      vertex -2.5 0 0
      vertex -2.48029 0.313333 1.5
      vertex -2.48029 0.313333 0
    endloop
  endfacet
  facet normal -0.998027 0.0627802 0
    outer loop
      vertex -2.48029 0.313333 1.5
      vertex -2.5 0 0
      vertex -2.5 0 1.5
    endloop
  endfacet
  facet normal 0.248699 0.968581 -0
    outer loop
      vertex 0.772542 2.37764 0
      vertex 0.468452 2.45572 1.5
      vertex 0.772542 2.37764 1.5
    endloop
  endfacet
  facet normal 0.248699 0.968581 0
    outer loop
      vertex 0.468452 2.45572 1.5
      vertex 0.772542 2.37764 0
      vertex 0.468452 2.45572 0
    endloop
  endfacet
  facet normal -0.844321 -0.535838 0
    outer loop
      vertex -2.02254 -1.46946 0
      vertex -2.19077 -1.20438 1.5
      vertex -2.19077 -1.20438 0
    endloop
  endfacet
  facet normal -0.844321 -0.535838 0
    outer loop
      vertex -2.19077 -1.20438 1.5
      vertex -2.02254 -1.46946 0
      vertex -2.02254 -1.46946 1.5
    endloop
  endfacet
  facet normal -0.481757 0.876305 0
    outer loop
      vertex -1.06445 2.26207 0
      vertex -1.33957 2.11082 1.5
      vertex -1.06445 2.26207 1.5
    endloop
  endfacet
  facet normal -0.481757 0.876305 0
    outer loop
      vertex -1.33957 2.11082 1.5
      vertex -1.06445 2.26207 0
      vertex -1.33957 2.11082 0
    endloop
  endfacet
  facet normal 0 -1 0
    outer loop
      vertex -0.156976 -2.49507 0
      vertex 0.156976 -2.49507 1.5
      vertex -0.156976 -2.49507 1.5
    endloop
  endfacet
  facet normal 0 -1 -0
    outer loop
      vertex 0.156976 -2.49507 1.5
      vertex -0.156976 -2.49507 0
      vertex 0.156976 -2.49507 0
    endloop
  endfacet
  facet normal -0.844321 0.535838 0
    outer loop
      vertex -2.19077 1.20438 0
      vertex -2.02254 1.46946 1.5
      vertex -2.02254 1.46946 0
    endloop
  endfacet
  facet normal -0.844321 0.535838 0
    outer loop
      vertex -2.02254 1.46946 1.5
      vertex -2.19077 1.20438 0
      vertex -2.19077 1.20438 1.5
    endloop
  endfacet
  facet normal -0.982287 0.187385 0
    outer loop
      vertex -2.48029 0.313333 0
      vertex -2.42146 0.621724 1.5
      vertex -2.42146 0.621724 0
    endloop
  endfacet
  facet normal -0.982287 0.187385 0
    outer loop
      vertex -2.42146 0.621724 1.5
      vertex -2.48029 0.313333 0
      vertex -2.48029 0.313333 1.5
    endloop
  endfacet
  facet normal 0 1 -0
    outer loop
      vertex 0.156976 2.49507 0
      vertex -0.156976 2.49507 1.5
      vertex 0.156976 2.49507 1.5
    endloop
  endfacet
  facet normal 0 1 0
    outer loop
      vertex -0.156976 2.49507 1.5
      vertex 0.156976 2.49507 0
      vertex -0.156976 2.49507 0
    endloop
  endfacet
  facet normal 0.481757 -0.876305 0
    outer loop
      vertex 1.06445 -2.26207 0
      vertex 1.33957 -2.11082 1.5
      vertex 1.06445 -2.26207 1.5
    endloop
  endfacet
  facet normal 0.481757 -0.876305 0
    outer loop
      vertex 1.33957 -2.11082 1.5
      vertex 1.06445 -2.26207 0
      vertex 1.33957 -2.11082 0
    endloop
  endfacet
  facet normal -0.90483 0.425772 0
    outer loop
      vertex -2.32444 0.920311 0
      vertex -2.19077 1.20438 1.5
      vertex -2.19077 1.20438 0
    endloop
  endfacet
  facet normal -0.90483 0.425772 0
    outer loop
      vertex -2.19077 1.20438 1.5
      vertex -2.32444 0.920311 0
      vertex -2.32444 0.920311 1.5
    endloop
  endfacet
  facet normal -0.770522 0.637414 0
    outer loop
      vertex -2.02254 1.46946 0
      vertex -1.82242 1.71137 1.5
      vertex -1.82242 1.71137 0
    endloop
  endfacet
  facet normal -0.770522 0.637414 0
    outer loop
      vertex -1.82242 1.71137 1.5
      vertex -2.02254 1.46946 0
      vertex -2.02254 1.46946 1.5
    endloop
  endfacet
  facet normal -0.982284 -0.187396 0
    outer loop
      vertex 1.48817 0.188 0
      vertex 1.45287 0.373034 2
      vertex 1.45287 0.373034 0
    endloop
  endfacet
  facet normal -0.982284 -0.187396 0
    outer loop
      vertex 1.45287 0.373034 2
      vertex 1.48817 0.188 0
      vertex 1.48817 0.188 2
    endloop
  endfacet
  facet normal -0.998026 -0.0628013 0
    outer loop
      vertex 1.5 0 0
      vertex 1.48817 0.188 2
      vertex 1.48817 0.188 0
    endloop
  endfacet
  facet normal -0.998026 -0.0628013 0
    outer loop
      vertex 1.48817 0.188 2
      vertex 1.5 0 0
      vertex 1.5 0 2
    endloop
  endfacet
  facet normal -0.904838 -0.425756 0
    outer loop
      vertex 1.39466 0.552186 0
      vertex 1.31446 0.722631 2
      vertex 1.31446 0.722631 0
    endloop
  endfacet
  facet normal -0.904838 -0.425756 0
    outer loop
      vertex 1.31446 0.722631 2
      vertex 1.39466 0.552186 0
      vertex 1.39466 0.552186 2
    endloop
  endfacet
  facet normal -0.684557 -0.728959 0
    outer loop
      vertex 0.956136 1.15577 0
      vertex 1.09345 1.02682 2
      vertex 0.956136 1.15577 2
    endloop
  endfacet
  facet normal -0.684557 -0.728959 -0
    outer loop
      vertex 1.09345 1.02682 2
      vertex 0.956136 1.15577 0
      vertex 1.09345 1.02682 0
    endloop
  endfacet
  facet normal -0.24871 -0.968578 0
    outer loop
      vertex 0.281072 1.47343 0
      vertex 0.463525 1.42658 2
      vertex 0.281072 1.47343 2
    endloop
  endfacet
  facet normal -0.24871 -0.968578 -0
    outer loop
      vertex 0.463525 1.42658 2
      vertex 0.281072 1.47343 0
      vertex 0.463525 1.42658 0
    endloop
  endfacet
  facet normal -0.998026 0.0628013 0
    outer loop
      vertex 1.48817 -0.188 0
      vertex 1.5 0 2
      vertex 1.5 0 0
    endloop
  endfacet
  facet normal -0.998026 0.0628013 0
    outer loop
      vertex 1.5 0 2
      vertex 1.48817 -0.188 0
      vertex 1.48817 -0.188 2
    endloop
  endfacet
  facet normal -0.904838 0.425756 0
    outer loop
      vertex 1.31446 -0.722631 0
      vertex 1.39466 -0.552186 2
      vertex 1.39466 -0.552186 0
    endloop
  endfacet
  facet normal -0.904838 0.425756 0
    outer loop
      vertex 1.39466 -0.552186 2
      vertex 1.31446 -0.722631 0
      vertex 1.31446 -0.722631 2
    endloop
  endfacet
  facet normal 0.587778 0.809022 -0
    outer loop
      vertex -0.80374 -1.26649 0
      vertex -0.956136 -1.15577 2
      vertex -0.80374 -1.26649 2
    endloop
  endfacet
  facet normal 0.587778 0.809022 0
    outer loop
      vertex -0.956136 -1.15577 2
      vertex -0.80374 -1.26649 0
      vertex -0.956136 -1.15577 0
    endloop
  endfacet
  facet normal -0.368106 0.929784 0
    outer loop
      vertex 0.638668 -1.35724 0
      vertex 0.463525 -1.42658 2
      vertex 0.638668 -1.35724 2
    endloop
  endfacet
  facet normal -0.368106 0.929784 0
    outer loop
      vertex 0.463525 -1.42658 2
      vertex 0.638668 -1.35724 0
      vertex 0.463525 -1.42658 0
    endloop
  endfacet
  facet normal 0.844314 0.535848 0
    outer loop
      vertex -1.21352 -0.881678 2
      vertex -1.31446 -0.722631 0
      vertex -1.31446 -0.722631 2
    endloop
  endfacet
  facet normal 0.844314 0.535848 0
    outer loop
      vertex -1.31446 -0.722631 0
      vertex -1.21352 -0.881678 2
      vertex -1.21352 -0.881678 0
    endloop
  endfacet
  facet normal -0.368106 -0.929784 0
    outer loop
      vertex 0.463525 1.42658 0
      vertex 0.638668 1.35724 2
      vertex 0.463525 1.42658 2
    endloop
  endfacet
  facet normal -0.368106 -0.929784 -0
    outer loop
      vertex 0.638668 1.35724 2
      vertex 0.463525 1.42658 0
      vertex 0.638668 1.35724 0
    endloop
  endfacet
  facet normal 0.481757 -0.876305 0
    outer loop
      vertex -0.80374 1.26649 0
      vertex -0.638668 1.35724 2
      vertex -0.80374 1.26649 2
    endloop
  endfacet
  facet normal 0.481757 -0.876305 0
    outer loop
      vertex -0.638668 1.35724 2
      vertex -0.80374 1.26649 0
      vertex -0.638668 1.35724 0
    endloop
  endfacet
  facet normal -0.951057 -0.309017 0
    outer loop
      vertex 1.45287 0.373034 0
      vertex 1.39466 0.552186 2
      vertex 1.39466 0.552186 0
    endloop
  endfacet
  facet normal -0.951057 -0.309017 0
    outer loop
      vertex 1.39466 0.552186 2
      vertex 1.45287 0.373034 0
      vertex 1.45287 0.373034 2
    endloop
  endfacet
  facet normal -0.982284 0.187396 0
    outer loop
      vertex 1.45287 -0.373034 0
      vertex 1.48817 -0.188 2
      vertex 1.48817 -0.188 0
    endloop
  endfacet
  facet normal -0.982284 0.187396 0
    outer loop
      vertex 1.48817 -0.188 2
      vertex 1.45287 -0.373034 0
      vertex 1.45287 -0.373034 2
    endloop
  endfacet
  facet normal -0.481757 -0.876305 0
    outer loop
      vertex 0.638668 1.35724 0
      vertex 0.80374 1.26649 2
      vertex 0.638668 1.35724 2
    endloop
  endfacet
  facet normal -0.481757 -0.876305 -0
    outer loop
      vertex 0.80374 1.26649 2
      vertex 0.638668 1.35724 0
      vertex 0.80374 1.26649 0
    endloop
  endfacet
  facet normal -0.125337 0.992114 0
    outer loop
      vertex 0.281072 -1.47343 0
      vertex 0.0941849 -1.49704 2
      vertex 0.281072 -1.47343 2
    endloop
  endfacet
  facet normal -0.125337 0.992114 0
    outer loop
      vertex 0.0941849 -1.49704 2
      vertex 0.281072 -1.47343 0
      vertex 0.0941849 -1.49704 0
    endloop
  endfacet
  facet normal 0.951057 -0.309017 0
    outer loop
      vertex -1.45287 0.373034 2
      vertex -1.39466 0.552186 0
      vertex -1.39466 0.552186 2
    endloop
  endfacet
  facet normal 0.951057 -0.309017 0
    outer loop
      vertex -1.39466 0.552186 0
      vertex -1.45287 0.373034 2
      vertex -1.45287 0.373034 0
    endloop
  endfacet
  facet normal -0.844314 -0.535848 0
    outer loop
      vertex 1.31446 0.722631 0
      vertex 1.21352 0.881678 2
      vertex 1.21352 0.881678 0
    endloop
  endfacet
  facet normal -0.844314 -0.535848 0
    outer loop
      vertex 1.21352 0.881678 2
      vertex 1.31446 0.722631 0
      vertex 1.31446 0.722631 2
    endloop
  endfacet
  facet normal -0.951057 0.309017 0
    outer loop
      vertex 1.39466 -0.552186 0
      vertex 1.45287 -0.373034 2
      vertex 1.45287 -0.373034 0
    endloop
  endfacet
  facet normal -0.951057 0.309017 0
    outer loop
      vertex 1.45287 -0.373034 2
      vertex 1.39466 -0.552186 0
      vertex 1.39466 -0.552186 2
    endloop
  endfacet
  facet normal 0.684557 -0.728959 0
    outer loop
      vertex -1.09345 1.02682 0
      vertex -0.956136 1.15577 2
      vertex -1.09345 1.02682 2
    endloop
  endfacet
  facet normal 0.684557 -0.728959 0
    outer loop
      vertex -0.956136 1.15577 2
      vertex -1.09345 1.02682 0
      vertex -0.956136 1.15577 0
    endloop
  endfacet
  facet normal -0.24871 0.968578 0
    outer loop
      vertex 0.463525 -1.42658 0
      vertex 0.281072 -1.47343 2
      vertex 0.463525 -1.42658 2
    endloop
  endfacet
  facet normal -0.24871 0.968578 0
    outer loop
      vertex 0.281072 -1.47343 2
      vertex 0.463525 -1.42658 0
      vertex 0.281072 -1.47343 0
    endloop
  endfacet
  facet normal 0.368106 -0.929784 0
    outer loop
      vertex -0.638668 1.35724 0
      vertex -0.463525 1.42658 2
      vertex -0.638668 1.35724 2
    endloop
  endfacet
  facet normal 0.368106 -0.929784 0
    outer loop
      vertex -0.463525 1.42658 2
      vertex -0.638668 1.35724 0
      vertex -0.463525 1.42658 0
    endloop
  endfacet
  facet normal -0.125337 -0.992114 0
    outer loop
      vertex 0.0941849 1.49704 0
      vertex 0.281072 1.47343 2
      vertex 0.0941849 1.49704 2
    endloop
  endfacet
  facet normal -0.125337 -0.992114 -0
    outer loop
      vertex 0.281072 1.47343 2
      vertex 0.0941849 1.49704 0
      vertex 0.281072 1.47343 0
    endloop
  endfacet
  facet normal 0.24871 -0.968578 0
    outer loop
      vertex -0.463525 1.42658 0
      vertex -0.281072 1.47343 2
      vertex -0.463525 1.42658 2
    endloop
  endfacet
  facet normal 0.24871 -0.968578 0
    outer loop
      vertex -0.281072 1.47343 2
      vertex -0.463525 1.42658 0
      vertex -0.281072 1.47343 0
    endloop
  endfacet
  facet normal 0.982284 0.187396 0
    outer loop
      vertex -1.45287 -0.373034 2
      vertex -1.48817 -0.188 0
      vertex -1.48817 -0.188 2
    endloop
  endfacet
  facet normal 0.982284 0.187396 0
    outer loop
      vertex -1.48817 -0.188 0
      vertex -1.45287 -0.373034 2
      vertex -1.45287 -0.373034 0
    endloop
  endfacet
  facet normal -0.587778 -0.809022 0
    outer loop
      vertex 0.80374 1.26649 0
      vertex 0.956136 1.15577 2
      vertex 0.80374 1.26649 2
    endloop
  endfacet
  facet normal -0.587778 -0.809022 -0
    outer loop
      vertex 0.956136 1.15577 2
      vertex 0.80374 1.26649 0
      vertex 0.956136 1.15577 0
    endloop
  endfacet
  facet normal 0.998026 0.0628013 0
    outer loop
      vertex -1.48817 -0.188 2
      vertex -1.5 0 0
      vertex -1.5 0 2
    endloop
  endfacet
  facet normal 0.998026 0.0628013 0
    outer loop
      vertex -1.5 0 0
      vertex -1.48817 -0.188 2
      vertex -1.48817 -0.188 0
    endloop
  endfacet
  facet normal 0 0 -1
    outer loop
      vertex 1.48817 -0.188 2
      vertex 1.48817 0.188 2
      vertex 1.5 0 2
    endloop
  endfacet
  facet normal 0 0 -1
    outer loop
      vertex 1.45287 -0.373034 2
      vertex 1.48817 0.188 2
      vertex 1.48817 -0.188 2
    endloop
  endfacet
  facet normal 0 0 -1
    outer loop
      vertex 1.45287 -0.373034 2
      vertex 1.45287 0.373034 2
      vertex 1.48817 0.188 2
    endloop
  endfacet
  facet normal 0 0 -1
    outer loop
      vertex 1.39466 -0.552186 2
      vertex 1.45287 0.373034 2
      vertex 1.45287 -0.373034 2
    endloop
  endfacet
  facet normal 0 0 -1
    outer loop
      vertex 1.39466 -0.552186 2
      vertex 1.39466 0.552186 2
      vertex 1.45287 0.373034 2
    endloop
  endfacet
  facet normal 0 0 -1
    outer loop
      vertex 1.31446 -0.722631 2
      vertex 1.39466 0.552186 2
      vertex 1.39466 -0.552186 2
    endloop
  endfacet
  facet normal 0 0 -1
    outer loop
      vertex 1.31446 -0.722631 2
      vertex 1.31446 0.722631 2
      vertex 1.39466 0.552186 2
    endloop
  endfacet
  facet normal 0 0 -1
    outer loop
      vertex 1.21352 -0.881678 2
      vertex 1.31446 0.722631 2
      vertex 1.31446 -0.722631 2
    endloop
  endfacet
  facet normal 0 0 -1
    outer loop
      vertex 1.21352 -0.881678 2
      vertex 1.21352 0.881678 2
      vertex 1.31446 0.722631 2
    endloop
  endfacet
  facet normal 0 0 -1
    outer loop
      vertex 1.09345 -1.02682 2
      vertex 1.21352 0.881678 2
      vertex 1.21352 -0.881678 2
    endloop
  endfacet
  facet normal 0 0 -1
    outer loop
      vertex 1.09345 -1.02682 2
      vertex 1.09345 1.02682 2
      vertex 1.21352 0.881678 2
    endloop
  endfacet
  facet normal 0 0 -1
    outer loop
      vertex 0.956136 -1.15577 2
      vertex 1.09345 1.02682 2
      vertex 1.09345 -1.02682 2
    endloop
  endfacet
  facet normal 0 0 -1
    outer loop
      vertex 0.956136 -1.15577 2
      vertex 0.956136 1.15577 2
      vertex 1.09345 1.02682 2
    endloop
  endfacet
  facet normal 0 0 -1
    outer loop
      vertex 0.80374 -1.26649 2
      vertex 0.956136 1.15577 2
      vertex 0.956136 -1.15577 2
    endloop
  endfacet
  facet normal 0 0 -1
    outer loop
      vertex 0.80374 -1.26649 2
      vertex 0.80374 1.26649 2
      vertex 0.956136 1.15577 2
    endloop
  endfacet
  facet normal 0 0 -1
    outer loop
      vertex 0.638668 -1.35724 2
      vertex 0.80374 1.26649 2
      vertex 0.80374 -1.26649 2
    endloop
  endfacet
  facet normal 0 0 -1
    outer loop
      vertex 0.638668 -1.35724 2
      vertex 0.638668 1.35724 2
      vertex 0.80374 1.26649 2
    endloop
  endfacet
  facet normal 0 0 -1
    outer loop
      vertex 0.463525 -1.42658 2
      vertex 0.638668 1.35724 2
      vertex 0.638668 -1.35724 2
    endloop
  endfacet
  facet normal 0 0 -1
    outer loop
      vertex 0.463525 -1.42658 2
      vertex 0.463525 1.42658 2
      vertex 0.638668 1.35724 2
    endloop
  endfacet
  facet normal 0 0 -1
    outer loop
      vertex 0.281072 -1.47343 2
      vertex 0.463525 1.42658 2
      vertex 0.463525 -1.42658 2
    endloop
  endfacet
  facet normal 0 0 -1
    outer loop
      vertex 0.281072 -1.47343 2
      vertex 0.281072 1.47343 2
      vertex 0.463525 1.42658 2
    endloop
  endfacet
  facet normal 0 0 -1
    outer loop
      vertex 0.0941849 -1.49704 2
      vertex 0.281072 1.47343 2
      vertex 0.281072 -1.47343 2
    endloop
  endfacet
  facet normal 0 0 -1
    outer loop
      vertex 0.0941849 -1.49704 2
      vertex 0.0941849 1.49704 2
      vertex 0.281072 1.47343 2
    endloop
  endfacet
  facet normal 0 0 -1
    outer loop
      vertex -0.0941849 -1.49704 2
      vertex 0.0941849 1.49704 2
      vertex 0.0941849 -1.49704 2
    endloop
  endfacet
  facet normal 0 0 -1
    outer loop
      vertex -0.0941849 -1.49704 2
      vertex -0.0941849 1.49704 2
      vertex 0.0941849 1.49704 2
    endloop
  endfacet
  facet normal 0 0 -1
    outer loop
      vertex -0.281072 -1.47343 2
      vertex -0.0941849 1.49704 2
      vertex -0.0941849 -1.49704 2
    endloop
  endfacet
  facet normal 0 0 -1
    outer loop
      vertex -0.281072 -1.47343 2
      vertex -0.281072 1.47343 2
      vertex -0.0941849 1.49704 2
    endloop
  endfacet
  facet normal 0 0 -1
    outer loop
      vertex -0.463525 -1.42658 2
      vertex -0.281072 1.47343 2
      vertex -0.281072 -1.47343 2
    endloop
  endfacet
  facet normal 0 0 -1
    outer loop
      vertex -0.463525 -1.42658 2
      vertex -0.463525 1.42658 2
      vertex -0.281072 1.47343 2
    endloop
  endfacet
  facet normal 0 0 -1
    outer loop
      vertex -0.638668 -1.35724 2
      vertex -0.463525 1.42658 2
      vertex -0.463525 -1.42658 2
    endloop
  endfacet
  facet normal 0 0 -1
    outer loop
      vertex -0.638668 -1.35724 2
      vertex -0.638668 1.35724 2
      vertex -0.463525 1.42658 2
    endloop
  endfacet
  facet normal 0 0 -1
    outer loop
      vertex -0.80374 -1.26649 2
      vertex -0.638668 1.35724 2
      vertex -0.638668 -1.35724 2
    endloop
  endfacet
  facet normal 0 0 -1
    outer loop
      vertex -0.80374 -1.26649 2
      vertex -0.80374 1.26649 2
      vertex -0.638668 1.35724 2
    endloop
  endfacet
  facet normal 0 0 -1
    outer loop
      vertex -0.956136 -1.15577 2
      vertex -0.80374 1.26649 2
      vertex -0.80374 -1.26649 2
    endloop
  endfacet
  facet normal 0 0 -1
    outer loop
      vertex -0.956136 -1.15577 2
      vertex -0.956136 1.15577 2
      vertex -0.80374 1.26649 2
    endloop
  endfacet
  facet normal 0 0 -1
    outer loop
      vertex -1.09345 -1.02682 2
      vertex -0.956136 1.15577 2
      vertex -0.956136 -1.15577 2
    endloop
  endfacet
  facet normal 0 0 -1
    outer loop
      vertex -1.09345 -1.02682 2
      vertex -1.09345 1.02682 2
      vertex -0.956136 1.15577 2
    endloop
  endfacet
  facet normal 0 0 -1
    outer loop
      vertex -1.21352 -0.881678 2
      vertex -1.09345 1.02682 2
      vertex -1.09345 -1.02682 2
    endloop
  endfacet
  facet normal 0 0 -1
    outer loop
      vertex -1.21352 -0.881678 2
      vertex -1.21352 0.881678 2
      vertex -1.09345 1.02682 2
    endloop
  endfacet
  facet normal 0 0 -1
    outer loop
      vertex -1.31446 -0.722631 2
      vertex -1.21352 0.881678 2
      vertex -1.21352 -0.881678 2
    endloop
  endfacet
  facet normal 0 0 -1
    outer loop
      vertex -1.31446 -0.722631 2
      vertex -1.31446 0.722631 2
      vertex -1.21352 0.881678 2
    endloop
  endfacet
  facet normal 0 0 -1
    outer loop
      vertex -1.39466 -0.552186 2
      vertex -1.31446 0.722631 2
      vertex -1.31446 -0.722631 2
    endloop
  endfacet
  facet normal 0 0 -1
    outer loop
      vertex -1.39466 -0.552186 2
      vertex -1.39466 0.552186 2
      vertex -1.31446 0.722631 2
    endloop
  endfacet
  facet normal 0 0 -1
    outer loop
      vertex -1.45287 -0.373034 2
      vertex -1.39466 0.552186 2
      vertex -1.39466 -0.552186 2
    endloop
  endfacet
  facet normal 0 0 -1
    outer loop
      vertex -1.45287 -0.373034 2
      vertex -1.45287 0.373034 2
      vertex -1.39466 0.552186 2
    endloop
  endfacet
  facet normal 0 0 -1
    outer loop
      vertex -1.48817 -0.188 2
      vertex -1.45287 0.373034 2
      vertex -1.45287 -0.373034 2
    endloop
  endfacet
  facet normal 0 0 -1
    outer loop
      vertex -1.48817 -0.188 2
      vertex -1.48817 0.188 2
      vertex -1.45287 0.373034 2
    endloop
  endfacet
  facet normal 0 -0 -1
    outer loop
      vertex -1.48817 0.188 2
      vertex -1.48817 -0.188 2
      vertex -1.5 0 2
    endloop
  endfacet
  facet normal -0.481757 0.876305 0
    outer loop
      vertex 0.80374 -1.26649 0
      vertex 0.638668 -1.35724 2
      vertex 0.80374 -1.26649 2
    endloop
  endfacet
  facet normal -0.481757 0.876305 0
    outer loop
      vertex 0.638668 -1.35724 2
      vertex 0.80374 -1.26649 0
      vertex 0.638668 -1.35724 0
    endloop
  endfacet
  facet normal 0.125337 0.992114 -0
    outer loop
      vertex -0.0941849 -1.49704 0
      vertex -0.281072 -1.47343 2
      vertex -0.0941849 -1.49704 2
    endloop
  endfacet
  facet normal 0.125337 0.992114 0
    outer loop
      vertex -0.281072 -1.47343 2
      vertex -0.0941849 -1.49704 0
      vertex -0.281072 -1.47343 0
    endloop
  endfacet
  facet normal 0.904838 -0.425756 0
    outer loop
      vertex -1.39466 0.552186 2
      vertex -1.31446 0.722631 0
      vertex -1.31446 0.722631 2
    endloop
  endfacet
  facet normal 0.904838 -0.425756 0
    outer loop
      vertex -1.31446 0.722631 0
      vertex -1.39466 0.552186 2
      vertex -1.39466 0.552186 0
    endloop
  endfacet
  facet normal 0.770518 0.637418 0
    outer loop
      vertex -1.09345 -1.02682 2
      vertex -1.21352 -0.881678 0
      vertex -1.21352 -0.881678 2
    endloop
  endfacet
  facet normal 0.770518 0.637418 0
    outer loop
      vertex -1.21352 -0.881678 0
      vertex -1.09345 -1.02682 2
      vertex -1.09345 -1.02682 0
    endloop
  endfacet
  facet normal 0.125337 -0.992114 0
    outer loop
      vertex -0.281072 1.47343 0
      vertex -0.0941849 1.49704 2
      vertex -0.281072 1.47343 2
    endloop
  endfacet
  facet normal 0.125337 -0.992114 0
    outer loop
      vertex -0.0941849 1.49704 2
      vertex -0.281072 1.47343 0
      vertex -0.0941849 1.49704 0
    endloop
  endfacet
  facet normal -0.684557 0.728959 0
    outer loop
      vertex 1.09345 -1.02682 0
      vertex 0.956136 -1.15577 2
      vertex 1.09345 -1.02682 2
    endloop
  endfacet
  facet normal -0.684557 0.728959 0
    outer loop
      vertex 0.956136 -1.15577 2
      vertex 1.09345 -1.02682 0
      vertex 0.956136 -1.15577 0
    endloop
  endfacet
  facet normal 0.904838 0.425756 0
    outer loop
      vertex -1.31446 -0.722631 2
      vertex -1.39466 -0.552186 0
      vertex -1.39466 -0.552186 2
    endloop
  endfacet
  facet normal 0.904838 0.425756 0
    outer loop
      vertex -1.39466 -0.552186 0
      vertex -1.31446 -0.722631 2
      vertex -1.31446 -0.722631 0
    endloop
  endfacet
  facet normal 0.368106 0.929784 -0
    outer loop
      vertex -0.463525 -1.42658 0
      vertex -0.638668 -1.35724 2
      vertex -0.463525 -1.42658 2
    endloop
  endfacet
  facet normal 0.368106 0.929784 0
    outer loop
      vertex -0.638668 -1.35724 2
      vertex -0.463525 -1.42658 0
      vertex -0.638668 -1.35724 0
    endloop
  endfacet
  facet normal 0.587778 -0.809022 0
    outer loop
      vertex -0.956136 1.15577 0
      vertex -0.80374 1.26649 2
      vertex -0.956136 1.15577 2
    endloop
  endfacet
  facet normal 0.587778 -0.809022 0
    outer loop
      vertex -0.80374 1.26649 2
      vertex -0.956136 1.15577 0
      vertex -0.80374 1.26649 0
    endloop
  endfacet
  facet normal 0.844314 -0.535848 0
    outer loop
      vertex -1.31446 0.722631 2
      vertex -1.21352 0.881678 0
      vertex -1.21352 0.881678 2
    endloop
  endfacet
  facet normal 0.844314 -0.535848 0
    outer loop
      vertex -1.21352 0.881678 0
      vertex -1.31446 0.722631 2
      vertex -1.31446 0.722631 0
    endloop
  endfacet
  facet normal -0.844314 0.535848 0
    outer loop
      vertex 1.21352 -0.881678 0
      vertex 1.31446 -0.722631 2
      vertex 1.31446 -0.722631 0
    endloop
  endfacet
  facet normal -0.844314 0.535848 0
    outer loop
      vertex 1.31446 -0.722631 2
      vertex 1.21352 -0.881678 0
      vertex 1.21352 -0.881678 2
    endloop
  endfacet
  facet normal 0 -1 0
    outer loop
      vertex -0.0941849 1.49704 0
      vertex 0.0941849 1.49704 2
      vertex -0.0941849 1.49704 2
    endloop
  endfacet
  facet normal 0 -1 -0
    outer loop
      vertex 0.0941849 1.49704 2
      vertex -0.0941849 1.49704 0
      vertex 0.0941849 1.49704 0
    endloop
  endfacet
  facet normal -0.770518 -0.637418 0
    outer loop
      vertex 1.21352 0.881678 0
      vertex 1.09345 1.02682 2
      vertex 1.09345 1.02682 0
    endloop
  endfacet
  facet normal -0.770518 -0.637418 0
    outer loop
      vertex 1.09345 1.02682 2
      vertex 1.21352 0.881678 0
      vertex 1.21352 0.881678 2
    endloop
  endfacet
  facet normal -0.587778 0.809022 0
    outer loop
      vertex 0.956136 -1.15577 0
      vertex 0.80374 -1.26649 2
      vertex 0.956136 -1.15577 2
    endloop
  endfacet
  facet normal -0.587778 0.809022 0
    outer loop
      vertex 0.80374 -1.26649 2
      vertex 0.956136 -1.15577 0
      vertex 0.80374 -1.26649 0
    endloop
  endfacet
  facet normal 0.24871 0.968578 -0
    outer loop
      vertex -0.281072 -1.47343 0
      vertex -0.463525 -1.42658 2
      vertex -0.281072 -1.47343 2
    endloop
  endfacet
  facet normal 0.24871 0.968578 0
    outer loop
      vertex -0.463525 -1.42658 2
      vertex -0.281072 -1.47343 0
      vertex -0.463525 -1.42658 0
    endloop
  endfacet
  facet normal 0 1 -0
    outer loop
      vertex 0.0941849 -1.49704 0
      vertex -0.0941849 -1.49704 2
      vertex 0.0941849 -1.49704 2
    endloop
  endfacet
  facet normal 0 1 0
    outer loop
      vertex -0.0941849 -1.49704 2
      vertex 0.0941849 -1.49704 0
      vertex -0.0941849 -1.49704 0
    endloop
  endfacet
  facet normal 0.770518 -0.637418 0
    outer loop
      vertex -1.21352 0.881678 2
      vertex -1.09345 1.02682 0
      vertex -1.09345 1.02682 2
    endloop
  endfacet
  facet normal 0.770518 -0.637418 0
    outer loop
      vertex -1.09345 1.02682 0
      vertex -1.21352 0.881678 2
      vertex -1.21352 0.881678 0
    endloop
  endfacet
  facet normal 0.481757 0.876305 -0
    outer loop
      vertex -0.638668 -1.35724 0
      vertex -0.80374 -1.26649 2
      vertex -0.638668 -1.35724 2
    endloop
  endfacet
  facet normal 0.481757 0.876305 0
    outer loop
      vertex -0.80374 -1.26649 2
      vertex -0.638668 -1.35724 0
      vertex -0.80374 -1.26649 0
    endloop
  endfacet
  facet normal 0.684557 0.728959 -0
    outer loop
      vertex -0.956136 -1.15577 0
      vertex -1.09345 -1.02682 2
      vertex -0.956136 -1.15577 2
    endloop
  endfacet
  facet normal 0.684557 0.728959 0
    outer loop
      vertex -1.09345 -1.02682 2
      vertex -0.956136 -1.15577 0
      vertex -1.09345 -1.02682 0
    endloop
  endfacet
  facet normal 0.951057 0.309017 0
    outer loop
      vertex -1.39466 -0.552186 2
      vertex -1.45287 -0.373034 0
      vertex -1.45287 -0.373034 2
    endloop
  endfacet
  facet normal 0.951057 0.309017 0
    outer loop
      vertex -1.45287 -0.373034 0
      vertex -1.39466 -0.552186 2
      vertex -1.39466 -0.552186 0
    endloop
  endfacet
  facet normal -0.770518 0.637418 0
    outer loop
      vertex 1.09345 -1.02682 0
      vertex 1.21352 -0.881678 2
      vertex 1.21352 -0.881678 0
    endloop
  endfacet
  facet normal -0.770518 0.637418 0
    outer loop
      vertex 1.21352 -0.881678 2
      vertex 1.09345 -1.02682 0
      vertex 1.09345 -1.02682 2
    endloop
  endfacet
  facet normal 0.998026 -0.0628013 0
    outer loop
      vertex -1.5 0 2
      vertex -1.48817 0.188 0
      vertex -1.48817 0.188 2
    endloop
  endfacet
  facet normal 0.998026 -0.0628013 0
    outer loop
      vertex -1.48817 0.188 0
      vertex -1.5 0 2
      vertex -1.5 0 0
    endloop
  endfacet
  facet normal 0.982284 -0.187396 0
    outer loop
      vertex -1.48817 0.188 2
      vertex -1.45287 0.373034 0
      vertex -1.45287 0.373034 2
    endloop
  endfacet
  facet normal 0.982284 -0.187396 0
    outer loop
      vertex -1.45287 0.373034 0
      vertex -1.48817 0.188 2
      vertex -1.48817 0.188 0
    endloop
  endfacet
endsolid OpenSCAD_Model
